<svg width="12" height="12" viewBox="0 0 12 12" fill="none" xmlns="http://www.w3.org/2000/svg">
<path d="M0.248279 10.6448C0.171638 10.7165 0.110166 10.8029 0.0675302 10.8989C0.0248947 10.9949 0.00196943 11.0985 0.000121402 11.2036C-0.00172662 11.3087 0.0175405 11.413 0.0567739 11.5105C0.0960073 11.6079 0.154403 11.6965 0.228477 11.7708C0.302551 11.8451 0.390787 11.9037 0.487919 11.943C0.585052 11.9824 0.689091 12.0017 0.793832 11.9999C0.898572 11.998 1.00187 11.975 1.09756 11.9323C1.19324 11.8895 1.27936 11.8278 1.35078 11.7509L0.248279 10.6448ZM6.55125 6.53352C6.62789 6.46187 6.68936 6.37547 6.732 6.27948C6.77463 6.18348 6.79756 6.07984 6.79941 5.97476C6.80126 5.86968 6.78199 5.7653 6.74276 5.66786C6.70352 5.57041 6.64513 5.48188 6.57105 5.40757C6.49698 5.33325 6.40874 5.27467 6.31161 5.23531C6.21448 5.19595 6.11044 5.17662 6.0057 5.17847C5.90096 5.18032 5.79766 5.20332 5.70197 5.2461C5.60629 5.28887 5.52017 5.35054 5.44875 5.42744L6.55125 6.53352ZM5.44875 5.42744C5.37211 5.49908 5.31064 5.58548 5.268 5.68148C5.22537 5.77748 5.20244 5.88111 5.20059 5.9862C5.19874 6.09128 5.21801 6.19565 5.25725 6.2931C5.29648 6.39055 5.35488 6.47907 5.42895 6.55339C5.50302 6.6277 5.59126 6.68629 5.68839 6.72565C5.78552 6.76501 5.88956 6.78434 5.9943 6.78249C6.09904 6.78063 6.20234 6.75763 6.29803 6.71486C6.39371 6.67209 6.47984 6.61041 6.55125 6.53352L5.44875 5.42744ZM11.7517 1.31613C11.8895 1.16777 11.9645 0.971552 11.961 0.768803C11.9574 0.566054 11.8755 0.372608 11.7326 0.229221C11.5897 0.0858332 11.3969 0.0036992 11.1948 0.000121928C10.9927 -0.00345534 10.7971 0.0718034 10.6492 0.210043L11.7517 1.31613ZM6.55125 5.42744C6.47984 5.35054 6.39371 5.28887 6.29803 5.2461C6.20234 5.20332 6.09904 5.18032 5.9943 5.17847C5.88956 5.17662 5.78552 5.19595 5.68839 5.23531C5.59126 5.27467 5.50302 5.33325 5.42895 5.40757C5.35488 5.48188 5.29648 5.57041 5.25725 5.66786C5.21801 5.7653 5.19874 5.86968 5.20059 5.97476C5.20244 6.07984 5.22537 6.18348 5.268 6.27948C5.31064 6.37547 5.37211 6.46187 5.44875 6.53352L6.55125 5.42744ZM10.6492 11.7509C10.7206 11.8278 10.8068 11.8895 10.9024 11.9323C10.9981 11.975 11.1014 11.998 11.2062 11.9999C11.3109 12.0017 11.4149 11.9824 11.5121 11.943C11.6092 11.9037 11.6974 11.8451 11.7715 11.7708C11.8456 11.6965 11.904 11.6079 11.9432 11.5105C11.9825 11.413 12.0017 11.3087 11.9999 11.2036C11.998 11.0985 11.9751 10.9949 11.9325 10.8989C11.8898 10.8029 11.8284 10.7165 11.7517 10.6448L10.6492 11.7509ZM5.44875 6.53352C5.52017 6.61041 5.60629 6.67209 5.70197 6.71486C5.79766 6.75763 5.90096 6.78063 6.0057 6.78249C6.11044 6.78434 6.21448 6.76501 6.31161 6.72565C6.40874 6.68629 6.49698 6.6277 6.57105 6.55339C6.64513 6.47907 6.70352 6.39055 6.74276 6.2931C6.78199 6.19565 6.80126 6.09128 6.79941 5.9862C6.79756 5.88111 6.77463 5.77748 6.732 5.68148C6.68936 5.58548 6.62789 5.49908 6.55125 5.42744L5.44875 6.53352ZM1.35078 0.210043C1.2029 0.0718034 1.00732 -0.00345534 0.805226 0.000121928C0.603134 0.0036992 0.410316 0.0858332 0.267394 0.229221C0.124471 0.372608 0.0426037 0.566054 0.039038 0.768803C0.0354724 0.971552 0.110487 1.16777 0.248279 1.31613L1.35078 0.210043ZM1.35078 11.7509L6.55125 6.53352L5.44875 5.42744L0.248279 10.6448L1.35078 11.7509ZM6.55125 6.53352L11.7517 1.31613L10.6492 0.210043L5.44875 5.42744L6.55125 6.53352ZM5.44875 6.53352L10.6492 11.7509L11.7517 10.6448L6.55125 5.42744L5.44875 6.53352ZM6.55125 5.42744L1.35078 0.210043L0.248279 1.31613L5.44875 6.53352L6.55125 5.42744Z" fill="black"/>
</svg>
