<svg width="16" height="16" viewBox="0 0 16 16" fill="none" xmlns="http://www.w3.org/2000/svg">
<path fill-rule="evenodd" clip-rule="evenodd" d="M3.4114 5.1678C3.68693 5.14943 3.92519 5.3579 3.94356 5.63343L4.25018 10.2328C4.31009 11.1314 4.35277 11.7566 4.44648 12.227C4.53738 12.6833 4.66427 12.9249 4.84655 13.0954C5.02882 13.2659 5.27826 13.3765 5.7396 13.4368C6.2152 13.499 6.84187 13.5 7.74243 13.5H8.25801C9.15857 13.5 9.78524 13.499 10.2608 13.4368C10.7222 13.3765 10.9716 13.2659 11.1539 13.0954C11.3362 12.9249 11.4631 12.6833 11.554 12.227C11.6477 11.7566 11.6904 11.1314 11.7503 10.2328L12.0569 5.63343C12.0753 5.3579 12.3135 5.14943 12.589 5.1678C12.8646 5.18617 13.073 5.42442 13.0547 5.69995L12.7457 10.3345C12.6887 11.1896 12.6427 11.8804 12.5347 12.4224C12.4224 12.986 12.2315 13.4567 11.8371 13.8256C11.4427 14.1946 10.9603 14.3538 10.3905 14.4284C9.84252 14.5001 9.15022 14.5 8.29316 14.5H7.70727C6.85022 14.5 6.15792 14.5001 5.60989 14.4284C5.04013 14.3538 4.55776 14.1946 4.16336 13.8256C3.76897 13.4567 3.57802 12.986 3.46576 12.4224C3.35777 11.8804 3.31173 11.1896 3.25474 10.3344L2.94577 5.69995C2.9274 5.42442 3.13587 5.18617 3.4114 5.1678Z" fill="#6C39FE"/>
<path fill-rule="evenodd" clip-rule="evenodd" d="M6.90373 1.50003L6.87307 1.50001C6.72881 1.49992 6.60313 1.49984 6.48445 1.51879C6.01558 1.59366 5.60985 1.8861 5.39055 2.30723C5.33504 2.41382 5.29537 2.53309 5.24984 2.66998L5.24016 2.69905L5.17544 2.89323C5.16278 2.93121 5.15925 2.94168 5.15618 2.95016C5.03943 3.2729 4.73675 3.49106 4.39365 3.49976C4.38463 3.49999 4.37358 3.50003 4.33355 3.50003H2.3335C2.05735 3.50003 1.8335 3.72388 1.8335 4.00003C1.8335 4.27617 2.05735 4.50003 2.3335 4.50003L4.33926 4.50003L4.35042 4.50003H11.65L11.6612 4.50003L13.6669 4.50003C13.943 4.50003 14.1669 4.27617 14.1669 4.00003C14.1669 3.72388 13.943 3.50003 13.6669 3.50003H11.6669C11.6269 3.50003 11.6158 3.49999 11.6068 3.49976C11.2637 3.49106 10.961 3.27289 10.8443 2.95014C10.8412 2.94172 10.8376 2.93102 10.825 2.89323L10.7603 2.69905L10.7506 2.66996C10.7051 2.53307 10.6654 2.41382 10.6099 2.30723C10.3906 1.8861 9.98485 1.59366 9.51599 1.51879C9.39731 1.49984 9.27163 1.49992 9.12737 1.50001L9.09671 1.50003H6.90373ZM6.09655 3.29032C6.07037 3.36269 6.03994 3.43268 6.0056 3.50003H9.99484C9.9605 3.43268 9.93007 3.3627 9.9039 3.29033L9.87809 3.21477L9.81159 3.01528C9.75081 2.83294 9.73682 2.79575 9.72293 2.76909C9.64984 2.62872 9.51459 2.53124 9.3583 2.50628C9.32862 2.50154 9.28892 2.50003 9.09671 2.50003H6.90373C6.71152 2.50003 6.67182 2.50154 6.64213 2.50628C6.48585 2.53124 6.3506 2.62872 6.2775 2.76909C6.26362 2.79575 6.24963 2.83294 6.18885 3.01528L6.12231 3.21489C6.11229 3.24495 6.1045 3.26834 6.09655 3.29032Z" fill="#6C39FE"/>
</svg>
