<svg width="30" height="31" viewBox="0 0 30 31" fill="none" xmlns="http://www.w3.org/2000/svg">
<path fill-rule="evenodd" clip-rule="evenodd" d="M25.0814 0.473047C24.2068 -0.0166813 23.2757 -0.0660119 22.2914 0.0570042C21.3565 0.173845 20.2191 0.469479 18.8522 0.824752L15.6566 1.65522C14.2903 2.01025 13.1527 2.30586 12.2823 2.65827C11.3671 3.02881 10.5758 3.52665 10.0625 4.38892C9.54596 5.25664 9.49467 6.18425 9.6234 7.15314C9.74477 8.06665 10.0511 9.17523 10.416 10.4959L11.2751 13.6054C11.6401 14.9268 11.9462 16.0352 12.3118 16.8846C12.6999 17.7864 13.2184 18.5541 14.0981 19.0467C14.9727 19.5365 15.9038 19.5858 16.8881 19.4628C17.8229 19.3459 18.9603 19.0503 20.3272 18.695L23.5229 17.8645C24.8892 17.5095 26.0268 17.2139 26.8972 16.8615C27.8124 16.491 28.6037 15.9931 29.117 15.1309C29.6335 14.2631 29.6848 13.3355 29.5561 12.3666C29.4347 11.4531 29.1284 10.3445 28.7635 9.02383L27.9044 5.91432C27.5394 4.59294 27.2332 3.48454 26.8677 2.6352C26.4796 1.73339 25.9611 0.965661 25.0814 0.473047ZM19.372 3.14355C20.8365 2.76296 21.8232 2.50899 22.5859 2.41367C23.3168 2.32232 23.6666 2.40286 23.921 2.54528C24.1702 2.68481 24.4081 2.92807 24.6862 3.57412C24.9794 4.2555 25.2443 5.20416 25.6373 6.62701L26.4518 9.57528C26.845 10.9985 27.1046 11.948 27.2018 12.6794C27.2941 13.3741 27.2114 13.6888 27.0762 13.916C26.9377 14.1487 26.6866 14.3845 26.0059 14.6601C25.297 14.9471 24.312 15.2056 22.8472 15.5862L19.8074 16.3762C18.343 16.7568 17.3563 17.0108 16.5935 17.1061C15.8626 17.1975 15.5128 17.1169 15.2585 16.9745C15.0093 16.835 14.7714 16.5917 14.4933 15.9457C14.2 15.2643 13.9352 14.3156 13.5421 12.8928L12.7276 9.9445C12.3344 8.52129 12.0749 7.57177 11.9777 6.84035C11.8854 6.14568 11.968 5.83093 12.1033 5.60374C12.2418 5.3711 12.4928 5.13529 13.1736 4.85969C13.8825 4.57267 14.8675 4.31421 16.3323 3.93353L19.372 3.14355Z" fill="#5133ED"/>
<path fill-rule="evenodd" clip-rule="evenodd" d="M1.50528 3.91827C0.873312 3.74293 0.218864 4.1131 0.0435261 4.74506C-0.131811 5.37703 0.238359 6.03148 0.870324 6.20682L3.56785 6.95524C4.24171 7.1422 4.74354 7.65124 4.91497 8.27176L8.00454 19.455C7.88584 19.4784 7.76721 19.5054 7.64876 19.5362C4.51843 20.3497 2.60558 23.4987 3.4649 26.6091C4.32009 29.7046 7.57174 31.4899 10.6897 30.6796C13.4183 29.9705 15.2218 27.487 15.0707 24.8012L28.4032 21.3363C29.0379 21.1714 29.4188 20.5231 29.2538 19.8883C29.0888 19.2536 28.4405 18.8727 27.8058 19.0377L14.4454 22.5098C13.6405 20.9465 12.1623 19.8592 10.4767 19.4848L7.20421 7.63932C6.80343 6.18861 5.65454 5.06947 4.2028 4.66669L1.50528 3.91827ZM8.24614 21.8348C10.1647 21.3362 12.0899 22.4498 12.5843 24.2392C13.0745 26.0136 11.9985 27.8856 10.0923 28.381C8.17373 28.8796 6.24849 27.766 5.75415 25.9767C5.26394 24.2023 6.33997 22.3302 8.24614 21.8348Z" fill="#5133ED"/>
</svg>
