<svg width="20" height="27" viewBox="0 0 20 27" fill="none" xmlns="http://www.w3.org/2000/svg">
<path d="M16 26.6667H4C2.93913 26.6667 1.92172 26.2453 1.17157 25.4951C0.42143 24.745 0 23.7276 0 22.6667V4C0 2.93913 0.42143 1.92171 1.17157 1.17157C1.92172 0.42142 2.93913 0 4 0H12.7867C13.1365 0.00147 13.4717 0.14034 13.72 0.38666L19.6133 6.28C19.8597 6.52834 19.9985 6.86354 20 7.21333V22.6667C20 23.7276 19.5786 24.745 18.8284 25.4951C18.0783 26.2453 17.0609 26.6667 16 26.6667Z" fill="#1A89FF"/>
<path d="M16 26.6667H4C2.93913 26.6667 1.92172 26.2453 1.17157 25.4951C0.42143 24.745 0 23.7276 0 22.6667V4C0 2.93913 0.42143 1.92171 1.17157 1.17157C1.92172 0.42142 2.93913 0 4 0H12.7867C13.1365 0.00147 13.4717 0.14034 13.72 0.38666L19.6133 6.28C19.8597 6.52834 19.9985 6.86354 20 7.21333V22.6667C20 23.7276 19.5786 24.745 18.8284 25.4951C18.0783 26.2453 17.0609 26.6667 16 26.6667Z" fill="#1A89FF"/>
<path d="M14.6348 21.3332L15.9858 19.4222L14.6628 17.5532H15.7828L16.5388 18.6732L17.2808 17.5532H18.4008L17.0778 19.4222L18.4358 21.3332H17.3158L16.5388 20.1712L15.7548 21.3332H14.6348Z" fill="white"/>
<path d="M12.6397 21.4382C12.2477 21.4382 11.9117 21.3507 11.6317 21.1757C11.3517 21.0007 11.137 20.7627 10.9877 20.4617C10.8383 20.1607 10.7637 19.8212 10.7637 19.4432C10.7637 19.0605 10.8407 18.7187 10.9947 18.4177C11.151 18.1167 11.3703 17.8799 11.6527 17.7072C11.935 17.5345 12.2687 17.4482 12.6537 17.4482C13.0993 17.4482 13.4727 17.5614 13.7737 17.7877C14.077 18.0117 14.2707 18.3185 14.3547 18.7082L13.4027 18.9602C13.3467 18.7642 13.2487 18.6114 13.1087 18.5017C12.971 18.392 12.8147 18.3372 12.6397 18.3372C12.439 18.3372 12.2745 18.3862 12.1462 18.4842C12.0178 18.5799 11.9233 18.7117 11.8627 18.8797C11.802 19.0454 11.7717 19.2332 11.7717 19.4432C11.7717 19.7722 11.844 20.0394 11.9887 20.2447C12.1357 20.4477 12.3527 20.5492 12.6397 20.5492C12.8543 20.5492 13.0177 20.5002 13.1297 20.4022C13.2417 20.3042 13.3257 20.1642 13.3817 19.9822L14.3547 20.1852C14.2473 20.5865 14.0443 20.8957 13.7457 21.1127C13.447 21.3297 13.0783 21.4382 12.6397 21.4382Z" fill="white"/>
<path d="M8.286 21.4382C7.9057 21.4382 7.572 21.353 7.285 21.1827C6.998 21.0124 6.774 20.7779 6.613 20.4792C6.4543 20.1782 6.375 19.8329 6.375 19.4432C6.375 19.0489 6.4567 18.7024 6.62 18.4037C6.7833 18.1027 7.0085 17.8682 7.2955 17.7002C7.5825 17.5322 7.9127 17.4482 8.286 17.4482C8.6663 17.4482 9 17.5334 9.287 17.7037C9.5763 17.874 9.8015 18.1097 9.9625 18.4107C10.1235 18.7094 10.204 19.0535 10.204 19.4432C10.204 19.8352 10.1223 20.1817 9.959 20.4827C9.798 20.7814 9.5728 21.0159 9.2835 21.1862C8.9965 21.3542 8.664 21.4382 8.286 21.4382ZM8.286 20.5492C8.5917 20.5492 8.8192 20.4465 8.9685 20.2412C9.1202 20.0335 9.196 19.7675 9.196 19.4432C9.196 19.1072 9.119 18.8389 8.965 18.6382C8.8133 18.4375 8.587 18.3372 8.286 18.3372C8.0783 18.3372 7.908 18.3839 7.775 18.4772C7.642 18.5705 7.5428 18.7 7.4775 18.8657C7.4145 19.0314 7.383 19.2239 7.383 19.4432C7.383 19.7815 7.4588 20.051 7.6105 20.2517C7.7645 20.45 7.9897 20.5492 8.286 20.5492Z" fill="white"/>
<path d="M3.743 21.4385C3.39533 21.4385 3.09083 21.351 2.8295 21.176C2.56817 21.001 2.364 20.763 2.217 20.462C2.07233 20.161 2 19.8215 2 19.4435C2 19.0585 2.0735 18.7167 2.2205 18.418C2.36983 18.117 2.57867 17.8802 2.847 17.7075C3.11533 17.5349 3.43033 17.4485 3.792 17.4485C4.1513 17.4485 4.4535 17.536 4.6985 17.711C4.9435 17.886 5.129 18.124 5.255 18.425C5.381 18.726 5.444 19.0655 5.444 19.4435C5.444 19.8215 5.3798 20.161 5.2515 20.462C5.1255 20.763 4.9365 21.001 4.6845 21.176C4.4325 21.351 4.1187 21.4385 3.743 21.4385ZM3.897 20.5915C4.1093 20.5915 4.2785 20.5437 4.4045 20.448C4.5328 20.3524 4.625 20.2182 4.681 20.0455C4.737 19.8729 4.765 19.6722 4.765 19.4435C4.765 19.2149 4.737 19.0142 4.681 18.8415C4.625 18.6689 4.5352 18.5347 4.4115 18.439C4.2902 18.3434 4.1303 18.2955 3.932 18.2955C3.71967 18.2955 3.54467 18.348 3.407 18.453C3.27167 18.5557 3.17133 18.6945 3.106 18.8695C3.04067 19.0422 3.008 19.2335 3.008 19.4435C3.008 19.6559 3.0395 19.8495 3.1025 20.0245C3.1655 20.1972 3.26233 20.3349 3.393 20.4375C3.52367 20.5402 3.69167 20.5915 3.897 20.5915ZM4.765 21.3335V18.7435H4.646V16.2935H5.605V21.3335H4.765Z" fill="white"/>
<path d="M19.0666 7.6534H14.2666C13.7361 7.6534 13.2274 7.4427 12.8524 7.06766C12.4773 6.69259 12.2666 6.18388 12.2666 5.65344V0.853449C12.266 0.707979 12.3087 0.565629 12.3892 0.444499C12.4698 0.323369 12.5845 0.228919 12.7189 0.173179C12.8532 0.117429 13.0011 0.102899 13.1438 0.131439C13.2864 0.159979 13.4173 0.230299 13.5199 0.333449L19.5866 6.40011C19.6897 6.50268 19.76 6.63361 19.7886 6.77625C19.8171 6.91888 19.8026 7.06679 19.7468 7.20114C19.6911 7.3355 19.5966 7.4502 19.4755 7.5308C19.3544 7.6113 19.212 7.654 19.0666 7.6534Z" fill="#01448C"/>
</svg>
