<svg width="32" height="32" viewBox="0 0 32 32" fill="none" xmlns="http://www.w3.org/2000/svg">
<path fill-rule="evenodd" clip-rule="evenodd" d="M16.3332 3.77879C15.7193 3.67448 14.8825 3.66657 13.3729 3.66657C10.8173 3.66657 9.00083 3.66868 7.62364 3.853C6.27446 4.03357 5.49921 4.37228 4.93571 4.93578C4.37143 5.50005 4.0332 6.27292 3.85285 7.61437C3.66863 8.98459 3.6665 10.7908 3.6665 13.3332V18.6666C3.6665 21.209 3.66863 23.0152 3.85285 24.3854C4.0332 25.7269 4.37143 26.4998 4.93571 27.064C5.49999 27.6283 6.27285 27.9665 7.6143 28.1469C8.98452 28.3311 10.7907 28.3332 13.3332 28.3332H18.6665C21.2089 28.3332 23.0152 28.3311 24.3854 28.1469C25.7268 27.9665 26.4997 27.6283 27.064 27.064C27.6282 26.4998 27.9665 25.7269 28.1468 24.3854C28.331 23.0152 28.3332 21.209 28.3332 18.6666V18.0838C28.3332 16.0358 28.3188 15.0649 28.1014 14.3332H23.9283C22.4178 14.3333 21.1835 14.3333 20.209 14.2023C19.1904 14.0653 18.3073 13.769 17.6024 13.064C16.8975 12.3591 16.6011 11.476 16.4641 10.4574C16.3331 9.48291 16.3331 8.2486 16.3332 6.73815V3.77879ZM18.3332 4.8125V6.66657C18.3332 8.26619 18.3353 9.3653 18.4463 10.1909C18.5534 10.9877 18.7452 11.3784 19.0166 11.6498C19.288 11.9212 19.6787 12.113 20.4755 12.2201C21.3011 12.3311 22.4002 12.3332 23.9998 12.3332H26.6925C26.2972 11.9498 25.7908 11.4905 25.1332 10.8986L19.8548 6.14806C19.2076 5.56561 18.726 5.13567 18.3332 4.8125ZM13.5671 1.66654C15.4132 1.66604 16.606 1.66572 17.7037 2.08698C18.8015 2.50822 19.6841 3.30296 21.0496 4.53257C21.0967 4.57502 21.1444 4.61799 21.1927 4.66147L26.4711 9.412C26.5273 9.46257 26.5828 9.5125 26.6376 9.56183C28.2158 10.9814 29.2364 11.8993 29.7853 13.1319C30.3343 14.3644 30.3339 15.7371 30.3332 17.8597C30.3332 17.9335 30.3332 18.0082 30.3332 18.0838V18.7418C30.3332 21.1921 30.3332 23.133 30.129 24.6519C29.9188 26.2152 29.476 27.4804 28.4782 28.4782C27.4804 29.4761 26.2151 29.9189 24.6519 30.1291C23.1329 30.3333 21.1921 30.3333 18.7417 30.3332H13.258C10.8076 30.3333 8.86676 30.3333 7.34781 30.1291C5.78458 29.9189 4.51931 29.4761 3.5215 28.4782C2.52368 27.4804 2.08085 26.2152 1.87068 24.6519C1.66647 23.133 1.66648 21.1921 1.6665 18.7418V13.258C1.66648 10.8077 1.66647 8.86683 1.87068 7.34787C2.08085 5.78464 2.52368 4.51938 3.5215 3.52156C4.52009 2.52296 5.78959 2.08063 7.35833 1.87067C8.88361 1.66653 10.8341 1.66655 13.2979 1.66657L13.3729 1.66657C13.4384 1.66657 13.5032 1.66655 13.5671 1.66654Z" fill="#6C39FE"/>
<path fill-rule="evenodd" clip-rule="evenodd" d="M12.0171 17.2704C11.6325 16.9098 11.0339 16.9097 10.6492 17.2704L7.98256 19.7704C7.57965 20.1481 7.55924 20.7809 7.93697 21.1838C8.3147 21.5868 8.94753 21.6072 9.35045 21.2294L10.3332 20.3081L10.3332 24.6666C10.3332 25.2189 10.7809 25.6666 11.3332 25.6666C11.8855 25.6666 12.3332 25.2189 12.3332 24.6666L12.3332 20.3081L13.3159 21.2294C13.7188 21.6072 14.3516 21.5868 14.7294 21.1838C15.1071 20.7809 15.0867 20.1481 14.6838 19.7704L12.0171 17.2704Z" fill="#6C39FE"/>
</svg>
