<svg width="33" height="33" viewBox="0 0 33 33" fill="none" xmlns="http://www.w3.org/2000/svg">
<path fill-rule="evenodd" clip-rule="evenodd" d="M16.0389 3.01785e-07C12.5764 -1.83756e-05 9.86278 -3.29912e-05 7.74556 0.284621C5.57845 0.57598 3.86842 1.18399 2.52621 2.52621C1.18399 3.86842 0.57598 5.57845 0.284621 7.74556C-3.29912e-05 9.86278 -1.83756e-05 12.5763 3.01785e-07 16.0389V16.2111C-1.83756e-05 19.6736 -3.29912e-05 22.3872 0.284621 24.5044C0.57598 26.6715 1.18399 28.3816 2.52621 29.7238C3.86842 31.066 5.57845 31.674 7.74556 31.9654C9.86279 32.25 12.5763 32.25 16.0389 32.25H16.2111C19.6737 32.25 22.3872 32.25 24.5044 31.9654C26.6715 31.674 28.3816 31.066 29.7238 29.7238C31.066 28.3816 31.674 26.6715 31.9654 24.5044C32.25 22.3872 32.25 19.6737 32.25 16.2111V16.0389C32.25 12.5763 32.25 9.86279 31.9654 7.74556C31.674 5.57845 31.066 3.86842 29.7238 2.52621C28.3816 1.18399 26.6715 0.57598 24.5044 0.284621C22.3872 -3.29912e-05 19.6737 -1.83756e-05 16.2111 3.01785e-07H16.0389ZM15 2.25041C12.0094 2.25357 9.78399 2.28081 8.04537 2.51456C6.12776 2.77237 4.97168 3.26271 4.1172 4.1172C3.26271 4.97168 2.77237 6.12776 2.51456 8.04537C2.28081 9.78399 2.25357 12.0094 2.25041 15H8.49563C7.96918 14.3424 7.57583 13.5668 7.36134 12.7088C6.55396 9.47927 9.47927 6.55396 12.7088 7.36134C13.5668 7.57583 14.3424 7.96918 15 8.49563V2.25041ZM2.25041 17.25C2.25357 20.2406 2.28081 22.466 2.51456 24.2046C2.77237 26.1222 3.26271 27.2783 4.1172 28.1328C4.97168 28.9873 6.12776 29.4776 8.04537 29.7354C9.78399 29.9692 12.0094 29.9964 15 29.9996V19.3105C13.8305 21.6463 11.415 23.25 8.625 23.25C8.00368 23.25 7.5 22.7463 7.5 22.125C7.5 21.5037 8.00368 21 8.625 21C10.9302 21 12.8617 19.4 13.3695 17.25H13.1776L13.1638 17.25H2.25041ZM17.25 29.9996C20.2406 29.9964 22.466 29.9692 24.2046 29.7354C26.1222 29.4776 27.2783 28.9873 28.1328 28.1328C28.9873 27.2783 29.4776 26.1222 29.7354 24.2046C29.9692 22.466 29.9964 20.2406 29.9996 17.25H19.0862L19.0724 17.25H18.8805C19.3883 19.4 21.3198 21 23.625 21C24.2463 21 24.75 21.5037 24.75 22.125C24.75 22.7463 24.2463 23.25 23.625 23.25C20.835 23.25 18.4195 21.6463 17.25 19.3105V29.9996ZM29.9996 15H23.7544C24.2808 14.3424 24.6742 13.5668 24.8887 12.7088C25.6961 9.47927 22.7708 6.55396 19.5412 7.36134C18.6833 7.57583 17.9076 7.96919 17.25 8.49565V2.25041C20.2406 2.25357 22.466 2.28081 24.2046 2.51456C26.1222 2.77237 27.2783 3.26271 28.1328 4.1172C28.9873 4.97168 29.4776 6.12776 29.7354 8.04537C29.9692 9.78399 29.9964 12.0094 29.9996 15ZM17.25 15L17.25 13.1687C17.2541 11.4538 18.4225 9.96025 20.0869 9.54416C21.6686 9.14874 23.1013 10.5814 22.7059 12.1631C22.2899 13.8268 20.7973 14.9951 19.0833 15H17.25ZM15 13.1662C14.9948 11.4524 13.8267 9.96006 12.1631 9.54416C10.5814 9.14874 9.14874 10.5814 9.54416 12.1631C9.96009 13.8268 11.4527 14.9951 13.1667 15H15V13.1662Z" fill="#5133ED"/>
</svg>
