<svg width="14" height="16" viewBox="0 0 14 16" fill="none" xmlns="http://www.w3.org/2000/svg">
<g clip-path="url(#clip0_19_21470)">
<path fill-rule="evenodd" clip-rule="evenodd" d="M0.363972 1.06662C0.146755 1.13823 0 1.34113 0 1.56985V12.8789C0 13.4312 0.447716 13.8789 1 13.8789V14.8789C1 15.4312 1.44772 15.8789 2 15.8789H3C3.55228 15.8789 4 15.4312 4 14.8789V13.8789H10V14.8789C10 15.4312 10.4477 15.8789 11 15.8789H12C12.5523 15.8789 13 15.4312 13 14.8789V13.8789C13.5523 13.8789 14 13.4312 14 12.8789V1.56985C14 1.34113 13.8532 1.13823 13.636 1.06662C9.32609 -0.354238 4.67391 -0.354238 0.363972 1.06662ZM5 1.37891C5 1.10276 5.22386 0.878906 5.5 0.878906H8.5C8.77614 0.878906 9 1.10276 9 1.37891C9 1.65505 8.77614 1.87891 8.5 1.87891H5.5C5.22386 1.87891 5 1.65505 5 1.37891ZM1 3.87891C1 3.32662 1.44772 2.87891 2 2.87891H12C12.5523 2.87891 13 3.32662 13 3.87891V7.87891C13 8.43119 12.5523 8.87891 12 8.87891H2C1.44772 8.87891 1 8.43119 1 7.87891V3.87891ZM2 9.87891C1.44772 9.87891 1 10.3266 1 10.8789C1 11.4312 1.44772 11.8789 2 11.8789H3C3.55228 11.8789 4 11.4312 4 10.8789C4 10.3266 3.55228 9.87891 3 9.87891H2ZM10 10.8789C10 10.3266 10.4477 9.87891 11 9.87891H12C12.5523 9.87891 13 10.3266 13 10.8789C13 11.4312 12.5523 11.8789 12 11.8789H11C10.4477 11.8789 10 11.4312 10 10.8789Z" fill="#97A4AF"/>
</g>
<defs>
<clipPath id="clip0_19_21470">
<rect width="14" height="16" fill="white"/>
</clipPath>
</defs>
</svg>
