<svg width="18" height="18" viewBox="0 0 18 18" fill="none" xmlns="http://www.w3.org/2000/svg">
<mask id="mask0_1_871" style="mask-type:luminance" maskUnits="userSpaceOnUse" x="0" y="0" width="18" height="18">
<path d="M18 0H0V18H18V0Z" fill="white"/>
</mask>
<g mask="url(#mask0_1_871)">
<path d="M9 1.6207C11.4047 1.6207 11.6895 1.6312 12.6352 1.6734C13.5141 1.7121 13.9887 1.8598 14.3051 1.9828C14.7234 2.1445 15.0258 2.3414 15.3387 2.6543C15.6551 2.9707 15.8484 3.2695 16.0102 3.6879C16.1332 4.0043 16.2809 4.4824 16.3195 5.3578C16.3617 6.307 16.3723 6.5918 16.3723 8.993C16.3723 11.3977 16.3617 11.6824 16.3195 12.6281C16.2809 13.507 16.1332 13.9816 16.0102 14.298C15.8484 14.7164 15.6516 15.0187 15.3387 15.3316C15.0223 15.648 14.7234 15.8414 14.3051 16.0031C13.9887 16.1262 13.5105 16.2738 12.6352 16.3125C11.6859 16.3547 11.4012 16.3652 9 16.3652C6.5953 16.3652 6.3105 16.3547 5.3648 16.3125C4.4859 16.2738 4.0113 16.1262 3.6949 16.0031C3.2766 15.8414 2.9742 15.6445 2.6613 15.3316C2.3449 15.0152 2.1516 14.7164 1.9898 14.298C1.8668 13.9816 1.7191 13.5035 1.6805 12.6281C1.6383 11.6789 1.6277 11.3941 1.6277 8.993C1.6277 6.5883 1.6383 6.3035 1.6805 5.3578C1.7191 4.4789 1.8668 4.0043 1.9898 3.6879C2.1516 3.2695 2.3484 2.9672 2.6613 2.6543C2.9777 2.3379 3.2766 2.1445 3.6949 1.9828C4.0113 1.8598 4.4895 1.7121 5.3648 1.6734C6.3105 1.6312 6.5953 1.6207 9 1.6207ZM9 0C6.5566 0 6.2508 0.0105 5.291 0.0527C4.3348 0.0949 3.6773 0.2496 3.1078 0.4711C2.5137 0.7031 2.0109 1.009 1.5117 1.5117C1.009 2.0109 0.7031 2.5137 0.4711 3.1043C0.2496 3.6773 0.0949 4.3312 0.0527 5.2875C0.0105 6.2508 0 6.5566 0 9C0 11.4434 0.0105 11.7492 0.0527 12.709C0.0949 13.6652 0.2496 14.3227 0.4711 14.8922C0.7031 15.4863 1.009 15.9891 1.5117 16.4883C2.0109 16.9875 2.5137 17.2969 3.1043 17.5254C3.6773 17.7469 4.3313 17.9016 5.2875 17.9437C6.2473 17.9859 6.5531 17.9965 8.9965 17.9965C11.4398 17.9965 11.7457 17.9859 12.7055 17.9437C13.6617 17.9016 14.3191 17.7469 14.8887 17.5254C15.4793 17.2969 15.982 16.9875 16.4813 16.4883C16.9805 15.9891 17.2898 15.4863 17.5184 14.8957C17.7398 14.3227 17.8945 13.6687 17.9367 12.7125C17.9789 11.7527 17.9895 11.4469 17.9895 9.0035C17.9895 6.5602 17.9789 6.2543 17.9367 5.2945C17.8945 4.3383 17.7398 3.6809 17.5184 3.1113C17.2969 2.5137 16.991 2.0109 16.4883 1.5117C15.9891 1.0125 15.4863 0.7031 14.8957 0.4746C14.3227 0.2531 13.6688 0.0984 12.7125 0.0562C11.7492 0.0105 11.4434 0 9 0Z" fill="black"/>
<path d="M8.99995 4.37695C6.44765 4.37695 4.37695 6.44765 4.37695 8.99995C4.37695 11.5523 6.44765 13.623 8.99995 13.623C11.5523 13.623 13.623 11.5523 13.623 8.99995C13.623 6.44765 11.5523 4.37695 8.99995 4.37695ZM8.99995 11.9988C7.34405 11.9988 6.00115 10.6559 6.00115 8.99995C6.00115 7.34405 7.34405 6.00115 8.99995 6.00115C10.6559 6.00115 11.9988 7.34405 11.9988 8.99995C11.9988 10.6559 10.6559 11.9988 8.99995 11.9988Z" fill="black"/>
<path d="M14.8852 4.19453C14.8852 4.79223 14.4 5.27383 13.8059 5.27383C13.2082 5.27383 12.7266 4.78873 12.7266 4.19453C12.7266 3.59693 13.2117 3.11523 13.8059 3.11523C14.4 3.11523 14.8852 3.60043 14.8852 4.19453Z" fill="black"/>
</g>
</svg>
