<svg width="12" height="12" viewBox="0 0 12 12" fill="none" xmlns="http://www.w3.org/2000/svg">
<path opacity="0.5" d="M1 8C1 6.58579 1 5.87868 1.43934 5.43934C1.87868 5 2.58579 5 4 5H8C9.41421 5 10.1213 5 10.5607 5.43934C11 5.87868 11 6.58579 11 8C11 9.41421 11 10.1213 10.5607 10.5607C10.1213 11 9.41421 11 8 11H4C2.58579 11 1.87868 11 1.43934 10.5607C1 10.1213 1 9.41421 1 8Z" fill="white"/>
<path d="M6 9C6.55228 9 7 8.55228 7 8C7 7.44772 6.55228 7 6 7C5.44772 7 5 7.44772 5 8C5 8.55228 5.44772 9 6 9Z" fill="white"/>
<path d="M3.375 4C3.375 2.55025 4.55025 1.375 6 1.375C7.44975 1.375 8.625 2.55025 8.625 4V5.00179C8.90868 5.00443 9.15675 5.011 9.375 5.0273V4C9.375 2.13604 7.86396 0.625 6 0.625C4.13604 0.625 2.625 2.13604 2.625 4V5.0273C2.84325 5.011 3.09132 5.00443 3.375 5.00179V4Z" fill="white"/>
</svg>
