<svg width="100" height="58" viewBox="0 0 100 58" fill="none" xmlns="http://www.w3.org/2000/svg">
<g clip-path="url(#clip0_1_103)">
<path d="M75.5704 13.7127C76.8661 13.726 78.1271 14.133 79.1861 14.8795C80.2452 15.626 81.0523 16.6769 81.5004 17.8927H69.6404C70.0885 16.6769 70.8956 15.626 71.9546 14.8795C73.0137 14.133 74.2747 13.726 75.5704 13.7127ZM86.8304 21.5027C86.8742 21.0974 86.8975 20.6903 86.9004 20.2827C86.954 17.9975 86.3255 15.7481 85.0949 13.8217C83.8643 11.8954 82.0876 10.3795 79.9915 9.46754C77.8955 8.55559 75.5752 8.28898 73.3269 8.70175C71.0787 9.11452 69.0044 10.1879 67.369 11.7849C65.7336 13.382 64.6112 15.4301 64.1451 17.668C63.6791 19.9058 63.8905 22.2318 64.7524 24.3489C65.6143 26.466 67.0876 28.2782 68.9842 29.5542C70.8807 30.8302 73.1145 31.512 75.4004 31.5126C77.6708 31.527 79.8946 30.869 81.7916 29.6215C83.6886 28.374 85.1739 26.5929 86.0604 24.5027L81.1104 23.6327C80.5741 24.641 79.7751 25.4856 78.7981 26.0771C77.8212 26.6685 76.7024 26.9849 75.5604 26.9927C74.0318 26.968 72.5617 26.4017 71.4116 25.3945C70.2616 24.3873 69.5064 23.0046 69.2804 21.4927H86.8204L86.8304 21.5027Z" fill="white"/>
<path d="M60.8297 9.52344H54.9697V31.1134H60.8297V9.52344Z" fill="white"/>
<path d="M57.8996 0.72266C57.2529 0.72266 56.6207 0.914434 56.0829 1.27375C55.5452 1.63306 55.1261 2.14377 54.8786 2.74129C54.6311 3.3388 54.5663 3.99628 54.6925 4.6306C54.8186 5.26491 55.1301 5.84758 55.5874 6.30489C56.0447 6.76221 56.6274 7.07365 57.2617 7.19982C57.896 7.32599 58.5535 7.26124 59.151 7.01374C59.7485 6.76624 60.2592 6.34711 60.6185 5.80937C60.9779 5.27162 61.1696 4.6394 61.1696 3.99266C61.1703 3.56305 61.0862 3.13754 60.9221 2.74051C60.758 2.34348 60.5171 1.98274 60.2133 1.67896C59.9096 1.37518 59.5488 1.13433 59.1518 0.970233C58.7548 0.806134 58.3292 0.722002 57.8996 0.72266Z" fill="white"/>
<path d="M19.06 2.60254V14.2225H6.41999V2.60254H0V31.1025H6.41999V19.4725H19.06V31.1025H25.4799V2.60254H19.06Z" fill="white"/>
<path d="M39.9991 26.7833C38.7166 26.7694 37.4669 26.3765 36.4072 25.6539C35.3475 24.9314 34.5253 23.9115 34.0441 22.7226C33.5628 21.5337 33.444 20.229 33.7027 18.9728C33.9613 17.7166 34.5859 16.565 35.4976 15.6629C36.4094 14.7609 37.5676 14.1487 38.8266 13.9035C40.0855 13.6584 41.3888 13.7911 42.5724 14.2851C43.7561 14.779 44.7672 15.6121 45.4783 16.6795C46.1895 17.7468 46.569 19.0007 46.5691 20.2833C46.5652 21.1417 46.392 21.9908 46.0596 22.7822C45.7272 23.5737 45.242 24.2918 44.6318 24.8955C44.0216 25.4992 43.2983 25.9767 42.5034 26.3006C41.7085 26.6245 40.8575 26.7885 39.9991 26.7833ZM45.5591 9.53329V10.6933C43.8616 9.66339 41.9213 9.10197 39.9361 9.06627C37.9508 9.03056 35.9916 9.52184 34.2581 10.49C32.5247 11.4582 31.0789 12.8687 30.0681 14.5777C29.0574 16.2868 28.5178 18.2332 28.5044 20.2187C28.491 22.2042 29.0043 24.1578 29.9919 25.8803C30.9795 27.6028 32.4062 29.0326 34.1264 30.0241C35.8467 31.0156 37.7991 31.5332 39.7846 31.5243C41.7702 31.5154 43.7178 30.9802 45.4291 29.9733V31.1033H51.1491V9.53329H45.5591Z" fill="white"/>
<path d="M99.0297 7.50244C96.3656 7.97881 93.9514 9.37056 92.2041 11.4373C90.4569 13.5041 89.4862 16.1162 89.4597 18.8224V31.1024H95.0697V18.6024C95.062 17.2269 95.5599 15.8965 96.4689 14.8641C97.3778 13.8317 98.6343 13.1691 99.9997 13.0024L99.0297 7.50244Z" fill="white"/>
<path d="M98.7798 37.5229H0V57.2779H98.7798V37.5229Z" fill="white"/>
<path d="M3.67442 41.6621H5.17442V48.4371L11.1744 41.6621H12.9994L8.63441 46.6971L13.3394 53.6071H11.5644L7.53941 47.8221L5.15942 50.5021V53.6071H3.65942L3.67442 41.6621Z" fill="black"/>
<path d="M14.6259 42.5319C14.6259 42.353 14.6789 42.178 14.7784 42.0292C14.8778 41.8803 15.0192 41.7643 15.1845 41.6958C15.3499 41.6273 15.5319 41.6094 15.7074 41.6443C15.883 41.6793 16.0442 41.7655 16.1708 41.892C16.2973 42.0186 16.3835 42.1798 16.4185 42.3554C16.4534 42.5309 16.4355 42.7129 16.367 42.8783C16.2985 43.0436 16.1825 43.185 16.0336 43.2844C15.8848 43.3839 15.7098 43.4369 15.5309 43.4369C15.4111 43.4404 15.2918 43.4194 15.1805 43.3751C15.0691 43.3308 14.968 43.2643 14.8832 43.1796C14.7985 43.0948 14.732 42.9937 14.6877 42.8823C14.6434 42.771 14.6224 42.6517 14.6259 42.5319ZM14.8159 44.9069H16.2158V53.6069H14.8159V44.9069Z" fill="black"/>
<path d="M19.1901 46.1878H17.6201V44.9078H19.1901V42.4678H20.5901V44.9078H22.8401V46.1878H20.5901V51.3178C20.5901 52.0528 20.8451 52.3178 21.5901 52.3178H23.0001V53.5978H21.5001C19.8251 53.5978 19.2301 52.8628 19.2301 51.3278L19.1901 46.1878Z" fill="black"/>
<path d="M23.9543 49.2727C23.9543 46.6127 25.6743 44.8027 28.1993 44.8027C30.3343 44.8027 31.6993 45.9977 32.0393 47.9077H30.5693C30.4719 47.3578 30.1742 46.8634 29.7338 46.52C29.2934 46.1765 28.7414 46.0083 28.1843 46.0477C26.5093 46.0477 25.3843 47.3777 25.3843 49.2727C25.3843 51.1677 26.5093 52.4627 28.1843 52.4627C28.7321 52.4911 29.272 52.3228 29.7065 51.9881C30.1411 51.6535 30.4418 51.1745 30.5543 50.6377H32.0543C31.7143 52.5127 30.2943 53.7077 28.1793 53.7077C25.6243 53.7077 23.9543 52.0027 23.9543 49.2727Z" fill="black"/>
<path d="M41.7449 48.7621V53.6071H40.3449V48.8471C40.3449 47.0371 39.4749 46.0821 37.975 46.0821C36.355 46.0821 35.35 47.2921 35.35 49.2571V53.6071H33.95V41.6621H35.35V46.3371C35.6465 45.8483 36.0687 45.4481 36.5727 45.1781C37.0766 44.9081 37.6437 44.7782 38.2149 44.8021C40.1599 44.8021 41.7449 45.8771 41.7449 48.7621Z" fill="black"/>
<path d="M43.6001 49.2577C43.6001 46.6127 45.2701 44.8027 47.7251 44.8027C50.1801 44.8027 51.7901 46.3577 51.8551 48.9327C51.8551 49.1177 51.8551 49.3227 51.8201 49.5277H45.0651V49.6477C45.1201 51.3027 46.1601 52.4627 47.8151 52.4627C48.369 52.5006 48.9189 52.3441 49.3698 52.0201C49.8207 51.696 50.1444 51.2248 50.2851 50.6877H51.7001C51.5331 51.5582 51.0592 52.3399 50.3646 52.8905C49.6699 53.441 48.8007 53.7239 47.9151 53.6877C45.3051 53.7077 43.6001 51.9177 43.6001 49.2577ZM50.3551 48.3677C50.3439 48.0407 50.2667 47.7194 50.128 47.423C49.9894 47.1267 49.7922 46.8614 49.5484 46.6432C49.3045 46.4251 49.019 46.2585 48.7091 46.1536C48.3992 46.0487 48.0713 46.0076 47.7451 46.0327C47.0986 46.0261 46.4733 46.2623 45.9927 46.6947C45.5122 47.1271 45.2114 47.7242 45.1501 48.3677H50.3551Z" fill="black"/>
<path d="M61.6098 48.7626V53.6076H60.2098V48.8476C60.2098 47.0376 59.3748 46.0826 57.8548 46.0826C56.2148 46.0826 55.2298 47.2926 55.2298 49.2576V53.6076H53.8298V44.9076H55.0398L55.2298 46.0826C55.57 45.6554 56.0078 45.3162 56.5063 45.0935C57.0049 44.8707 57.5497 44.771 58.0948 44.8026C60.0548 44.8026 61.6098 45.8776 61.6098 48.7626Z" fill="black"/>
<path d="M68.7495 53.6071V41.6621H70.2495V52.2421H75.6945V53.6071H68.7495Z" fill="black"/>
<path d="M84.5556 47.9427V53.6077H83.3456L83.2256 52.2427C82.9072 52.7175 82.4715 53.1019 81.9608 53.3586C81.45 53.6153 80.8815 53.7356 80.3106 53.7077C78.4006 53.7077 77.1006 52.7527 77.1006 51.1677C77.1006 49.4277 78.3156 48.4527 80.6006 48.4527H83.1606V47.8577C83.1606 46.7327 82.3556 46.0477 80.9906 46.0477C79.7656 46.0477 78.9456 46.6277 78.7756 47.5177H77.3756C77.5806 45.8127 78.9606 44.8027 81.0606 44.8027C83.2756 44.8027 84.5556 45.9127 84.5556 47.9427ZM83.1606 49.6327H80.4656C79.2156 49.6327 78.5206 50.0927 78.5206 51.0827C78.5206 51.9327 79.2506 52.5127 80.4106 52.5127C82.1506 52.5127 83.1606 51.5127 83.1606 50.0577V49.6327Z" fill="black"/>
<path d="M95.4191 49.2571C95.4191 51.9171 93.6441 53.7071 91.2391 53.7071C89.7691 53.7071 88.7791 53.1121 88.2391 52.2771L88.0491 53.6071H86.8391V41.6621H88.2391V46.3021C88.5736 45.8209 89.0236 45.4314 89.5477 45.1693C90.0719 44.9073 90.6535 44.781 91.2391 44.8021C93.6441 44.8021 95.4191 46.4221 95.4191 49.2571ZM93.9841 49.2571C93.9841 47.3621 92.8241 46.0471 91.0991 46.0471C89.3741 46.0471 88.2341 47.3621 88.2341 49.2221C88.2341 51.0821 89.3941 52.4621 91.0991 52.4621C92.8041 52.4621 93.9991 51.1471 93.9991 49.2571H93.9841Z" fill="black"/>
</g>
<defs>
<clipPath id="clip0_1_103">
<rect width="100" height="58" fill="white"/>
</clipPath>
</defs>
</svg>
