<svg width="202" height="117" viewBox="0 0 202 117" fill="none" xmlns="http://www.w3.org/2000/svg">
<path d="M152.652 27.6618C155.269 27.6886 157.816 28.5096 159.956 30.0155C162.095 31.5214 163.725 33.6413 164.631 36.0939H140.673C141.579 33.6413 143.209 31.5214 145.348 30.0155C147.487 28.5096 150.035 27.6886 152.652 27.6618ZM175.397 43.3761C175.486 42.5585 175.533 41.7373 175.539 40.9151C175.647 36.3053 174.377 31.7677 171.891 27.8817C169.406 23.9959 165.817 20.9379 161.583 19.0983C157.349 17.2586 152.662 16.7208 148.12 17.5535C143.579 18.3861 139.389 20.5514 136.085 23.7729C132.782 26.9947 130.514 31.1262 129.573 35.6406C128.632 40.1548 129.059 44.8469 130.8 49.1176C132.541 53.3883 135.517 57.0439 139.348 59.6179C143.179 62.1919 147.691 63.5673 152.309 63.5685C156.895 63.5975 161.387 62.2702 165.219 59.7537C169.051 57.2372 172.051 53.6443 173.842 49.4278L163.843 47.6728C162.759 49.7068 161.145 51.4106 159.172 52.6038C157.199 53.7968 154.939 54.435 152.632 54.4507C149.544 54.4009 146.574 53.2586 144.251 51.2268C141.928 49.195 140.403 46.4058 139.946 43.3559H175.377L175.397 43.3761Z" fill="black"/>
<path d="M122.876 19.2111H111.039V62.7632H122.876V19.2111Z" fill="black"/>
<path d="M116.957 1.45777C115.651 1.45777 114.374 1.84463 113.287 2.56945C112.201 3.29427 111.355 4.32449 110.855 5.52984C110.355 6.73516 110.224 8.06145 110.479 9.34103C110.734 10.6206 111.363 11.796 112.287 12.7185C113.21 13.641 114.387 14.2693 115.669 14.5238C116.95 14.7783 118.278 14.6477 119.485 14.1484C120.692 13.6491 121.724 12.8036 122.449 11.7189C123.175 10.6341 123.563 9.35878 123.563 8.05415C123.564 7.18752 123.394 6.32917 123.063 5.52826C122.731 4.72736 122.245 3.99966 121.631 3.38686C121.017 2.77406 120.289 2.28821 119.487 1.95719C118.685 1.62616 117.825 1.45644 116.957 1.45777Z" fill="black"/>
<path d="M38.5012 5.25V28.6903H12.9684V5.25H0V62.7413H12.9684V39.2808H38.5012V62.7413H51.4694V5.25H38.5012Z" fill="black"/>
<path d="M80.7982 54.0284C78.2075 54.0003 75.6831 53.2077 73.5425 51.7501C71.4019 50.2926 69.7411 48.2352 68.7691 45.8369C67.7969 43.4386 67.5569 40.8067 68.0795 38.2727C68.6018 35.7386 69.8635 33.4156 71.7051 31.5958C73.547 29.7763 75.8865 28.5413 78.4297 28.0467C80.9727 27.5523 83.6054 27.8199 85.9962 28.8165C88.3873 29.8128 90.4297 31.4933 91.8662 33.6465C93.3028 35.7995 94.0694 38.329 94.0696 40.9163C94.0617 42.6479 93.7118 44.3607 93.0404 45.9572C92.3689 47.5538 91.3888 49.0024 90.1562 50.2202C88.9236 51.438 87.4626 52.4012 85.8569 53.0546C84.2512 53.708 82.5321 54.0388 80.7982 54.0284ZM92.0294 19.2309V21.5709C88.6004 19.4934 84.681 18.3608 80.6709 18.2888C76.6606 18.2168 72.703 19.2078 69.2014 21.1608C65.6999 23.1139 62.7794 25.9592 60.7376 29.4067C58.6959 32.8544 57.606 36.7807 57.5789 40.786C57.5518 44.7912 58.5887 48.7321 60.5836 52.2068C62.5786 55.6815 65.4605 58.5657 68.9353 60.5658C72.4103 62.5659 76.3542 63.61 80.3649 63.5921C84.3758 63.5741 88.31 62.4945 91.7668 60.4634V62.7428H103.321V19.2309H92.0294Z" fill="black"/>
<path d="M200.04 15.1343C194.659 16.0952 189.782 18.9027 186.252 23.0718C182.723 27.2411 180.762 32.5103 180.709 37.9694V62.7411H192.041V37.5256C192.025 34.7509 193.031 32.0671 194.867 29.9845C196.703 27.9019 199.241 26.5653 201.999 26.229L200.04 15.1343Z" fill="black"/>
<path d="M199.535 75.6927H0V115.543H199.535V75.6927Z" fill="black"/>
<path d="M7.42233 84.0425H10.4523V97.7093L22.5723 84.0425H26.2588L17.4415 94.1993L26.9456 108.138H23.3601L15.2296 96.4687L10.422 101.875V108.138H7.39203L7.42233 84.0425Z" fill="white"/>
<path d="M29.5443 85.7971C29.5443 85.4362 29.6514 85.0832 29.8524 84.7831C30.0532 84.4827 30.3388 84.2487 30.6727 84.1105C31.0068 83.9723 31.3744 83.9362 31.729 84.0066C32.0837 84.0772 32.4093 84.2511 32.665 84.5063C32.9205 84.7617 33.0947 85.0869 33.1654 85.4411C33.2359 85.7951 33.1997 86.1622 33.0613 86.4959C32.923 86.8293 32.6887 87.1146 32.3879 87.3151C32.0873 87.5158 31.7338 87.6227 31.3724 87.6227C31.1304 87.6298 30.8894 87.5874 30.6646 87.4981C30.4396 87.4087 30.2354 87.2746 30.0641 87.1037C29.893 86.9326 29.7586 86.7287 29.6692 86.504C29.5797 86.2795 29.5373 86.0388 29.5443 85.7971ZM29.9281 90.5881H32.7559V108.138H29.9281V90.5881Z" fill="white"/>
<path d="M38.764 93.172H35.5926V90.5899H38.764V85.6678H41.592V90.5899H46.137V93.172H41.592V103.52C41.592 105.003 42.1071 105.538 43.612 105.538H46.4602V108.12H43.4302C40.0467 108.12 38.8448 106.637 38.8448 103.541L38.764 93.172Z" fill="white"/>
<path d="M48.3877 99.3949C48.3877 94.029 51.8621 90.3778 56.9626 90.3778C61.2753 90.3778 64.0326 92.7884 64.7194 96.6413H61.75C61.5532 95.5321 60.9519 94.5347 60.0623 93.842C59.1727 93.1491 58.0576 92.8098 56.9323 92.8893C53.5488 92.8893 51.2763 95.5722 51.2763 99.3949C51.2763 103.218 53.5488 105.83 56.9323 105.83C58.0388 105.887 59.1294 105.548 60.0071 104.872C60.885 104.198 61.4924 103.231 61.7197 102.148H64.7497C64.0629 105.931 61.1945 108.341 56.9222 108.341C51.7611 108.341 48.3877 104.902 48.3877 99.3949Z" fill="white"/>
<path d="M84.3247 98.3649V108.138H81.4967V98.5364C81.4967 94.8851 79.7393 92.9587 76.7095 92.9587C73.4371 92.9587 71.407 95.3995 71.407 99.3634V108.138H68.579V84.0425H71.407V93.4731C72.0059 92.4871 72.8588 91.6798 73.8769 91.1351C74.8947 90.5904 76.0403 90.3284 77.1941 90.3766C81.123 90.3766 84.3247 92.5451 84.3247 98.3649Z" fill="white"/>
<path d="M88.0722 99.3646C88.0722 94.029 91.4456 90.3778 96.4047 90.3778C101.364 90.3778 104.616 93.5146 104.747 98.709C104.747 99.0822 104.747 99.4957 104.677 99.9093H91.0315V100.151C91.1426 103.49 93.2434 105.83 96.5865 105.83C97.7054 105.906 98.8162 105.591 99.727 104.937C100.638 104.283 101.292 103.333 101.576 102.249H104.434C104.097 104.005 103.14 105.582 101.736 106.693C100.333 107.803 98.5774 108.374 96.7885 108.301C91.5163 108.341 88.0722 104.73 88.0722 99.3646ZM101.717 97.5693C101.695 96.9096 101.539 96.2615 101.259 95.6636C100.979 95.0659 100.58 94.5307 100.088 94.0905C99.5951 93.6506 99.0184 93.3145 98.3924 93.1029C97.7664 92.8913 97.104 92.8084 96.4451 92.859C95.1392 92.8457 93.8761 93.3222 92.9053 94.1944C91.9346 95.0667 91.327 96.2712 91.2032 97.5693H101.717Z" fill="white"/>
<path d="M124.452 98.3659V108.139H121.624V98.5374C121.624 94.8862 119.937 92.9597 116.867 92.9597C113.554 92.9597 111.564 95.4006 111.564 99.3644V108.139H108.736V90.5894H111.18L111.564 92.9597C112.251 92.0979 113.136 91.4137 114.143 90.9644C115.15 90.515 116.25 90.3139 117.352 90.3776C121.311 90.3776 124.452 92.5462 124.452 98.3659Z" fill="white"/>
<path d="M138.874 108.138V84.0425H141.904V105.385H152.903V108.138H138.874Z" fill="white"/>
<path d="M170.802 96.7119V108.14H168.358L168.116 105.386C167.473 106.344 166.592 107.119 165.561 107.637C164.529 108.155 163.381 108.398 162.227 108.341C158.369 108.341 155.743 106.415 155.743 103.218C155.743 99.7076 158.198 97.7407 162.813 97.7407H167.984V96.5405C167.984 94.2711 166.358 92.8893 163.601 92.8893C161.127 92.8893 159.47 94.0593 159.127 95.8546H156.299C156.713 92.4152 159.5 90.3778 163.742 90.3778C168.217 90.3778 170.802 92.6169 170.802 96.7119ZM167.984 100.121H162.541C160.016 100.121 158.612 101.049 158.612 103.046C158.612 104.761 160.086 105.931 162.429 105.931C165.944 105.931 167.984 103.913 167.984 100.978V100.121Z" fill="white"/>
<path d="M192.747 99.3634C192.747 104.729 189.161 108.34 184.303 108.34C181.334 108.34 179.334 107.14 178.243 105.455L177.859 108.138H175.415V84.0425H178.243V93.4025C178.919 92.4318 179.828 91.6461 180.886 91.1173C181.945 90.5888 183.12 90.3341 184.303 90.3766C189.161 90.3766 192.747 93.6445 192.747 99.3634ZM189.848 99.3634C189.848 95.5408 187.505 92.8881 184.02 92.8881C180.536 92.8881 178.233 95.5408 178.233 99.2928C178.233 103.045 180.576 105.829 184.02 105.829C187.464 105.829 189.878 103.176 189.878 99.3634H189.848Z" fill="white"/>
</svg>
