<svg width="100" height="31" viewBox="0 0 100 31" fill="none" xmlns="http://www.w3.org/2000/svg">
<path d="M75.5692 12.99C76.8649 13.0033 78.1259 13.4103 79.1849 14.1568C80.244 14.9033 81.0511 15.9542 81.4992 17.17H69.6392C70.0873 15.9542 70.8944 14.9033 71.9534 14.1568C73.0125 13.4103 74.2735 13.0033 75.5692 12.99ZM86.8292 20.78C86.873 20.3747 86.8963 19.9676 86.8992 19.56C86.9528 17.2748 86.3243 15.0254 85.0937 13.099C83.8631 11.1727 82.0864 9.65684 79.9903 8.74488C77.8943 7.83293 75.574 7.56632 73.3257 7.97909C71.0775 8.39186 69.0032 9.46524 67.3678 11.0622C65.7324 12.6593 64.61 14.7074 64.1439 16.9453C63.6779 19.1831 63.8893 21.5091 64.7512 23.6262C65.6131 25.7433 67.0864 27.5555 68.983 28.8315C70.8795 30.1075 73.1133 30.7893 75.3992 30.7899C77.6696 30.8043 79.8934 30.1463 81.7904 28.8988C83.6874 27.6513 85.1727 25.8702 86.0592 23.78L81.1092 22.91C80.5729 23.9183 79.7739 24.7629 78.7969 25.3544C77.82 25.9458 76.7012 26.2622 75.5592 26.27C74.0306 26.2453 72.5605 25.679 71.4104 24.6718C70.2604 23.6646 69.5052 22.2819 69.2792 20.77H86.8192L86.8292 20.78Z" fill="black"/>
<path d="M60.8288 8.80078H54.9688V30.3907H60.8288V8.80078Z" fill="black"/>
<path d="M57.8988 3.83001e-06C57.2521 3.83001e-06 56.6199 0.191778 56.0821 0.551094C55.5444 0.910404 55.1253 1.42111 54.8778 2.01863C54.6303 2.61614 54.5655 3.27362 54.6917 3.90794C54.8178 4.54225 55.1293 5.12492 55.5866 5.58223C56.0439 6.03955 56.6266 6.35099 57.2609 6.47716C57.8952 6.60333 58.5527 6.53858 59.1502 6.29108C59.7477 6.04358 60.2584 5.62445 60.6177 5.08671C60.9771 4.54896 61.1688 3.91674 61.1688 3.27C61.1695 2.84039 61.0854 2.41488 60.9213 2.01785C60.7572 1.62082 60.5163 1.26008 60.2125 0.956304C59.9088 0.652524 59.548 0.411674 59.151 0.247577C58.754 0.0834779 58.3284 -0.00065417 57.8988 3.83001e-06Z" fill="black"/>
<path d="M19.06 1.87988V13.4998H6.41999V1.87988H0V30.3798H6.41999V18.7498H19.06V30.3798H25.4799V1.87988H19.06Z" fill="black"/>
<path d="M39.9989 26.0606C38.7164 26.0467 37.4667 25.6538 36.407 24.9312C35.3473 24.2087 34.5251 23.1888 34.0439 21.9999C33.5626 20.811 33.4438 19.5063 33.7025 18.2501C33.9611 16.9939 34.5857 15.8423 35.4974 14.9402C36.4092 14.0382 37.5674 13.426 38.8264 13.1808C40.0853 12.9357 41.3886 13.0684 42.5722 13.5624C43.7559 14.0563 44.767 14.8894 45.4781 15.9568C46.1893 17.0241 46.5688 18.278 46.5689 19.5606C46.565 20.419 46.3918 21.2681 46.0594 22.0595C45.727 22.851 45.2418 23.5691 44.6316 24.1728C44.0214 24.7765 43.2981 25.254 42.5032 25.5779C41.7083 25.9018 40.8573 26.0658 39.9989 26.0606ZM45.5589 8.81063V9.97064C43.8614 8.94073 41.9211 8.37931 39.9359 8.34361C37.9506 8.3079 35.9914 8.79918 34.2579 9.76734C32.5245 10.7355 31.0787 12.146 30.0679 13.855C29.0572 15.5641 28.5176 17.5105 28.5042 19.496C28.4908 21.4815 29.0041 23.4351 29.9917 25.1576C30.9793 26.8801 32.406 28.3099 34.1262 29.3014C35.8465 30.2929 37.7989 30.8105 39.7844 30.8016C41.77 30.7927 43.7176 30.2575 45.4289 29.2506V30.3806H51.1489V8.81063H45.5589Z" fill="black"/>
<path d="M99.0309 6.77979C96.3668 7.25616 93.9526 8.6479 92.2053 10.7146C90.4581 12.7814 89.4874 15.3935 89.4609 18.0997V30.3797H95.0709V17.8797C95.0632 16.5042 95.5611 15.1738 96.4701 14.1414C97.379 13.109 98.6355 12.4464 100.001 12.2797L99.0309 6.77979Z" fill="black"/>
</svg>
