<svg width="24" height="24" viewBox="0 0 24 24" fill="none" xmlns="http://www.w3.org/2000/svg">
<path fill-rule="evenodd" clip-rule="evenodd" d="M15.6402 4.83529C15.2693 4.52626 14.7307 4.52626 14.3598 4.83529L10.9206 7.70135C10.6403 7.9349 10.3281 8.10962 10 8.2255V20.0001C10 20.068 9.99323 20.1343 9.98034 20.1984C9.99323 20.2625 10 20.3288 10 20.3967C10 20.949 9.55228 21.3967 9 21.3967C8.31869 21.3967 7.6356 21.1648 7.07945 20.7013L3.07945 17.368C2.39547 16.798 2 15.9537 2 15.0633V5.13514C2 3.43947 3.97771 2.51315 5.28037 3.5987L8.35982 6.16491C8.73066 6.47394 9.26934 6.47394 9.64018 6.1649L13.0794 3.29885C14.192 2.37174 15.808 2.37174 16.9206 3.29885L20.9206 6.63219C21.3448 6.98575 21.4022 7.61631 21.0486 8.04059C20.695 8.46487 20.0645 8.52219 19.6402 8.16863L15.6402 4.83529ZM8 18.8651V8.2255C7.67193 8.10962 7.35971 7.9349 7.07945 7.70135L4 5.13514V15.0633C4 15.3601 4.13182 15.6416 4.35982 15.8316L8 18.8651ZM17 11.0001C15.3431 11.0001 14 12.3432 14 14.0001C14 14.3511 14.1264 14.8537 14.3978 15.4625C14.6621 16.0555 15.0318 16.6782 15.4385 17.2469C15.8463 17.8174 16.2711 18.3055 16.6319 18.6389C16.7802 18.776 16.9042 18.8743 17 18.9394C17.0958 18.8743 17.2198 18.776 17.3681 18.6389C17.7289 18.3055 18.1537 17.8174 18.5615 17.2469C18.9682 16.6782 19.3379 16.0555 19.6022 15.4625C19.8736 14.8537 20 14.3511 20 14.0001C20 12.3432 18.6569 11.0001 17 11.0001ZM12 14.0001C12 11.2387 14.2386 9.0001 17 9.0001C19.7614 9.0001 22 11.2387 22 14.0001C22 14.7537 21.7514 15.5534 21.429 16.2767C21.0996 17.0158 20.6568 17.755 20.1885 18.4101C19.7213 19.0635 19.2086 19.6612 18.7256 20.1076C18.4853 20.3297 18.2321 20.5333 17.9782 20.6876C17.7516 20.8252 17.4026 21.0001 17 21.0001C16.5974 21.0001 16.2484 20.8252 16.0218 20.6876C15.7679 20.5333 15.5147 20.3297 15.2744 20.1076C14.7914 19.6612 14.2787 19.0635 13.8115 18.4101C13.3432 17.755 12.9004 17.0158 12.571 16.2767C12.2486 15.5534 12 14.7537 12 14.0001Z" fill="#A3A3A3"/>
</svg>
