<svg width="18" height="18" viewBox="0 0 18 18" fill="none" xmlns="http://www.w3.org/2000/svg">
<path fill-rule="evenodd" clip-rule="evenodd" d="M9.19415 17.9486C7.42522 17.9486 6.60547 17.6896 5.18169 16.6536C4.27565 17.8191 1.41946 18.7299 1.29866 17.1716C1.29866 16.0018 1.03547 15.0133 0.746405 13.9342C0.392617 12.6046 0 11.124 0 8.97863C0 3.85477 4.18504 0 9.14669 0C14.1083 0 18 4.04902 18 9.03043C18 14.0118 13.9875 17.953 9.19415 17.953M9.2675 4.4332C6.85139 4.30802 4.96596 5.9872 4.55177 8.62035C4.20662 10.8003 4.81927 13.455 5.34132 13.5931C5.58725 13.6536 6.21716 13.1442 6.60547 12.7514C7.24401 13.1701 7.97747 13.4895 8.7929 13.5327C11.2694 13.6622 13.4655 11.7197 13.5992 9.229C13.6466 8.0223 13.2197 6.84503 12.41 5.94942C11.6003 5.0538 10.4723 4.51108 9.2675 4.43752" fill="white"/>
</svg>
