<svg width="70" height="40" viewBox="0 0 70 40" fill="none" xmlns="http://www.w3.org/2000/svg">
<path d="M48 14.5V13C48 11.8954 47.1046 11 46 11H21C19.8954 11 19 11.8954 19 13V31C19 32.1046 19.8954 33 21 33H46C47.1046 33 48 32.1046 48 31V29.5" stroke="#6C39FE" stroke-width="2" stroke-linecap="round"/>
<path d="M38.5646 6.49019L37.5496 4.73202C36.9973 3.77544 35.7741 3.44769 34.8175 3.99997L23.9922 10.25" stroke="#6C39FE" stroke-width="2" stroke-linecap="round"/>
<path d="M42.4238 9.46479L42.3365 8.96945C42.1447 7.88166 41.1074 7.15532 40.0196 7.34713L24 10.1718" stroke="#6C39FE" stroke-width="2" stroke-linecap="round"/>
<path d="M50 18H38C36.8954 18 36 18.8954 36 20V24C36 25.1046 36.8954 26 38 26H50C51.1046 26 52 25.1046 52 24V20C52 18.8954 51.1046 18 50 18Z" stroke="#6C39FE" stroke-width="2"/>
</svg>
