<svg width="14" height="14" viewBox="0 0 14 14" fill="none" xmlns="http://www.w3.org/2000/svg">
<path opacity="0.5" d="M3.49984 1.1665H4.81234H5.68734H6.56234H7.43734H8.31234H9.18734H10.0623L10.9373 1.16655C11.6605 1.16724 12.0384 1.17853 12.3147 1.36312C12.4421 1.44824 12.5514 1.55762 12.6366 1.68501C12.8332 1.97927 12.8332 2.3889 12.8332 3.20817C12.8332 4.02744 12.8332 4.43708 12.6366 4.73134C12.5514 4.85872 12.4421 4.9681 12.3147 5.05322C12.0204 5.24984 11.6108 5.24984 10.7915 5.24984H6.4165C5.86653 5.24984 5.59155 5.24984 5.42069 5.42069C5.24984 5.59155 5.24984 5.86653 5.24984 6.4165V10.7915C5.24984 11.6108 5.24984 12.0204 5.05322 12.3147C4.9681 12.4421 4.85872 12.5514 4.73134 12.6366C4.43708 12.8332 4.02744 12.8332 3.20817 12.8332C2.3889 12.8332 1.97927 12.8332 1.68501 12.6366C1.55762 12.5514 1.44824 12.4421 1.36312 12.3147C1.17853 12.0384 1.16724 11.6605 1.16655 10.9373L1.1665 10.0623V9.18734V8.31234V7.43734V6.56234V5.68734V4.81234V3.49984C1.1665 2.39989 1.1665 1.84992 1.50821 1.50821C1.84992 1.1665 2.39989 1.1665 3.49984 1.1665Z" fill="#80C0FF"/>
<path d="M2.33317 10.0623H1.1665L1.16655 10.9373H2.33317C2.5748 10.9373 2.77067 10.7415 2.77067 10.4998C2.77067 10.2582 2.5748 10.0623 2.33317 10.0623Z" fill="#80C0FF"/>
<path d="M2.9165 8.31234L1.1665 8.31234V9.18734L2.9165 9.18734C3.15813 9.18734 3.354 8.99146 3.354 8.74984C3.354 8.50821 3.15813 8.31234 2.9165 8.31234Z" fill="#80C0FF"/>
<path d="M2.33317 6.56234H1.1665V7.43734H2.33317C2.5748 7.43734 2.77067 7.24146 2.77067 6.99984C2.77067 6.75821 2.5748 6.56234 2.33317 6.56234Z" fill="#80C0FF"/>
<path d="M2.9165 4.81234H1.1665V5.68734H2.9165C3.15813 5.68734 3.354 5.49146 3.354 5.24984C3.354 5.00821 3.15813 4.81234 2.9165 4.81234Z" fill="#80C0FF"/>
<path d="M5.68734 2.9165L5.68734 1.1665H4.81234L4.81234 2.9165C4.81234 3.15813 5.00821 3.354 5.24984 3.354C5.49146 3.354 5.68734 3.15813 5.68734 2.9165Z" fill="#80C0FF"/>
<path d="M7.43734 2.33317V1.1665H6.56234V2.33317C6.56234 2.5748 6.75821 2.77067 6.99984 2.77067C7.24146 2.77067 7.43734 2.5748 7.43734 2.33317Z" fill="#80C0FF"/>
<path d="M9.18734 2.9165V1.1665H8.31234V2.9165C8.31234 3.15813 8.50821 3.354 8.74984 3.354C8.99146 3.354 9.18734 3.15813 9.18734 2.9165Z" fill="#80C0FF"/>
<path d="M10.9373 2.33317V1.16655L10.0623 1.1665V2.33317C10.0623 2.5748 10.2582 2.77067 10.4998 2.77067C10.7415 2.77067 10.9373 2.5748 10.9373 2.33317Z" fill="#80C0FF"/>
</svg>
