<svg width="35" height="35" viewBox="0 0 35 35" fill="none" xmlns="http://www.w3.org/2000/svg">
<path fill-rule="evenodd" clip-rule="evenodd" d="M15.0388 0.557956C16.5953 -0.185985 18.4047 -0.185985 19.9612 0.557956C20.6374 0.88115 21.257 1.40965 22.1149 2.14143C22.1594 2.17941 22.2046 2.21794 22.2505 2.25702C22.6671 2.61208 22.7983 2.72125 22.9311 2.81024C23.2688 3.03658 23.648 3.19367 24.0469 3.27241C24.2037 3.30337 24.3736 3.31895 24.9193 3.3625C24.9794 3.36729 25.0386 3.37199 25.0969 3.37662C26.221 3.46581 27.0328 3.53023 27.7395 3.77984C29.3661 4.35438 30.6456 5.63386 31.2202 7.26049C31.4698 7.96716 31.5342 8.77899 31.6234 9.90308C31.628 9.96143 31.6327 10.0206 31.6375 10.0807C31.6811 10.6264 31.6966 10.7963 31.7276 10.9531C31.8063 11.352 31.9634 11.7312 32.1898 12.0689C32.2787 12.2017 32.3879 12.3329 32.743 12.7495C32.7821 12.7954 32.8206 12.8406 32.8586 12.8851C33.5904 13.743 34.1189 14.3626 34.442 15.0388C35.186 16.5953 35.186 18.4047 34.442 19.9612C34.1189 20.6374 33.5904 21.257 32.8586 22.1149C32.8206 22.1594 32.7821 22.2046 32.743 22.2505C32.3879 22.6671 32.2787 22.7983 32.1898 22.9311C31.9634 23.2688 31.8063 23.648 31.7276 24.0469C31.6966 24.2037 31.6811 24.3737 31.6375 24.9193C31.6327 24.9794 31.628 25.0386 31.6234 25.0969C31.5342 26.221 31.4698 27.0328 31.2202 27.7395C30.6456 29.3661 29.3661 30.6456 27.7395 31.2202C27.0328 31.4698 26.221 31.5342 25.0969 31.6234C25.0386 31.628 24.9794 31.6327 24.9193 31.6375C24.3737 31.6811 24.2037 31.6966 24.0469 31.7276C23.648 31.8063 23.2688 31.9634 22.9311 32.1898C22.7983 32.2787 22.6671 32.3879 22.2505 32.743C22.2046 32.7821 22.1594 32.8206 22.1149 32.8586C21.257 33.5904 20.6374 34.1189 19.9612 34.442C18.4047 35.186 16.5953 35.186 15.0388 34.442C14.3626 34.1189 13.743 33.5904 12.8851 32.8586C12.8406 32.8206 12.7954 32.7821 12.7495 32.743C12.3329 32.3879 12.2017 32.2787 12.0689 32.1898C11.7312 31.9634 11.352 31.8063 10.9531 31.7276C10.7963 31.6966 10.6264 31.6811 10.0807 31.6375C10.0206 31.6327 9.96143 31.628 9.90308 31.6234C8.77899 31.5342 7.96716 31.4698 7.26049 31.2202C5.63386 30.6456 4.35438 29.3661 3.77984 27.7395C3.53023 27.0328 3.46581 26.221 3.37662 25.0969C3.37199 25.0386 3.36729 24.9794 3.3625 24.9193C3.31895 24.3736 3.30337 24.2037 3.27241 24.0469C3.19367 23.648 3.03658 23.2688 2.81024 22.9311C2.72125 22.7983 2.61208 22.6671 2.25702 22.2505C2.21794 22.2046 2.17941 22.1594 2.14143 22.1149C1.40965 21.257 0.881151 20.6374 0.557956 19.9612C-0.185985 18.4047 -0.185985 16.5953 0.557956 15.0388C0.881149 14.3626 1.40964 13.743 2.14142 12.8851C2.17941 12.8406 2.21794 12.7954 2.25702 12.7495C2.61208 12.3329 2.72125 12.2017 2.81024 12.0689C3.03658 11.7312 3.19367 11.352 3.27241 10.9531C3.30337 10.7963 3.31895 10.6264 3.3625 10.0807C3.36729 10.0206 3.37199 9.96143 3.37662 9.90308C3.46581 8.77899 3.53023 7.96717 3.77984 7.2605C4.35438 5.63386 5.63386 4.35438 7.2605 3.77984C7.96717 3.53023 8.77899 3.46581 9.90308 3.37662C9.96143 3.37199 10.0206 3.36729 10.0807 3.3625C10.6264 3.31895 10.7963 3.30337 10.9531 3.27241C11.352 3.19367 11.7312 3.03658 12.0689 2.81024C12.2017 2.72125 12.3329 2.61208 12.7495 2.25702C12.7954 2.21794 12.8406 2.17941 12.8851 2.14142C13.743 1.40964 14.3626 0.88115 15.0388 0.557956ZM18.8253 2.93457C17.9872 2.53398 17.0128 2.53398 16.1747 2.93457C15.8507 3.08944 15.5092 3.36615 14.4581 4.26189C14.4408 4.27661 14.4238 4.29113 14.407 4.30546C14.062 4.59953 13.8102 4.8142 13.5355 4.99835C12.9083 5.41869 12.204 5.71042 11.4633 5.85666C11.1388 5.92072 10.809 5.94698 10.3571 5.98295C10.3351 5.9847 10.3128 5.98647 10.2902 5.98828C8.91359 6.09813 8.47641 6.14397 8.13778 6.26358C7.2619 6.57295 6.57295 7.2619 6.26358 8.13778C6.14397 8.47641 6.09813 8.91359 5.98828 10.2902C5.98647 10.3128 5.9847 10.3351 5.98295 10.3571C5.94698 10.809 5.92072 11.1388 5.85666 11.4633C5.71042 12.204 5.41869 12.9083 4.99835 13.5355C4.81419 13.8102 4.59953 14.062 4.30545 14.407C4.29112 14.4238 4.2766 14.4408 4.26189 14.4581C3.36615 15.5092 3.08944 15.8507 2.93457 16.1747C2.53398 17.0128 2.53398 17.9872 2.93457 18.8253C3.08944 19.1493 3.36615 19.4908 4.26189 20.5419C4.27661 20.5592 4.29113 20.5762 4.30546 20.593C4.59953 20.938 4.8142 21.1898 4.99835 21.4645C5.41869 22.0917 5.71042 22.796 5.85666 23.5367C5.92072 23.8612 5.94698 24.191 5.98295 24.6429C5.9847 24.6649 5.98647 24.6872 5.98828 24.7098C6.09813 26.0864 6.14397 26.5236 6.26358 26.8622C6.57295 27.7381 7.2619 28.427 8.13778 28.7364C8.47641 28.856 8.91359 28.9019 10.2902 29.0117L10.3571 29.0171C10.809 29.053 11.1388 29.0793 11.4633 29.1434C12.204 29.2896 12.9083 29.5813 13.5355 30.0017C13.8102 30.1858 14.062 30.4005 14.407 30.6946L14.4581 30.7381C15.5092 31.6338 15.8507 31.9106 16.1747 32.0654C17.0128 32.466 17.9872 32.466 18.8253 32.0654C19.1493 31.9106 19.4908 31.6339 20.5419 30.7381L20.593 30.6945C20.938 30.4005 21.1898 30.1858 21.4645 30.0017C22.0917 29.5813 22.796 29.2896 23.5367 29.1434C23.8612 29.0793 24.191 29.053 24.6429 29.0171L24.7098 29.0117C26.0864 28.9019 26.5236 28.856 26.8622 28.7364C27.7381 28.427 28.427 27.7381 28.7364 26.8622C28.856 26.5236 28.9019 26.0864 29.0117 24.7098L29.0171 24.6429C29.053 24.191 29.0793 23.8612 29.1434 23.5367C29.2896 22.796 29.5813 22.0917 30.0017 21.4645C30.1858 21.1898 30.4005 20.938 30.6945 20.593L30.7381 20.5419C31.6339 19.4908 31.9106 19.1493 32.0654 18.8253C32.466 17.9872 32.466 17.0128 32.0654 16.1747C31.9106 15.8507 31.6339 15.5092 30.7381 14.4581L30.6945 14.4069C30.4005 14.062 30.1858 13.8102 30.0017 13.5355C29.5813 12.9083 29.2896 12.204 29.1434 11.4633C29.0793 11.1388 29.053 10.809 29.0171 10.3571L29.0117 10.2902C28.9019 8.91359 28.856 8.47641 28.7364 8.13778C28.427 7.2619 27.7381 6.57295 26.8622 6.26358C26.5236 6.14397 26.0864 6.09813 24.7098 5.98828C24.6872 5.98647 24.6649 5.9847 24.6429 5.98295C24.191 5.94698 23.8612 5.92072 23.5367 5.85666C22.796 5.71042 22.0917 5.41869 21.4645 4.99835C21.1898 4.81419 20.938 4.59953 20.593 4.30544C20.5762 4.29112 20.5592 4.2766 20.5419 4.26189C19.4908 3.36615 19.1493 3.08944 18.8253 2.93457Z" fill="#5133ED"/>
<path fill-rule="evenodd" clip-rule="evenodd" d="M23.6996 11.3004C24.2139 11.8148 24.2139 12.6487 23.6996 13.163L13.163 23.6996C12.6487 24.2139 11.8148 24.2139 11.3004 23.6996C10.7861 23.1852 10.7861 22.3513 11.3004 21.837L21.837 11.3004C22.3513 10.7861 23.1852 10.7861 23.6996 11.3004Z" fill="#5133ED"/>
<path d="M23.6463 21.8902C23.6463 22.8601 22.8601 23.6463 21.8902 23.6463C20.9204 23.6463 20.1341 22.8601 20.1341 21.8902C20.1341 20.9204 20.9204 20.1341 21.8902 20.1341C22.8601 20.1341 23.6463 20.9204 23.6463 21.8902Z" fill="#5133ED"/>
<path d="M14.8659 13.1098C14.8659 14.0796 14.0796 14.8659 13.1098 14.8659C12.1399 14.8659 11.3537 14.0796 11.3537 13.1098C11.3537 12.1399 12.1399 11.3537 13.1098 11.3537C14.0796 11.3537 14.8659 12.1399 14.8659 13.1098Z" fill="#5133ED"/>
</svg>
