<svg width="20" height="20" viewBox="0 0 20 20" fill="none" xmlns="http://www.w3.org/2000/svg">
<path d="M12.4215 12.9484C12.2849 13.0448 12.1286 13.1096 11.9639 13.1382C11.7992 13.1668 11.6302 13.1584 11.4692 13.1135C11.3081 13.0687 11.1591 12.9887 11.0328 12.8792C10.9065 12.7696 10.8061 12.6334 10.739 12.4803L10.2059 10.8601C10.0762 10.4703 9.85751 10.1161 9.56715 9.82548C9.2768 9.53488 8.92274 9.31591 8.53305 9.18593L6.98349 8.68256C6.76324 8.60594 6.57279 8.46177 6.43927 8.27059C6.33617 8.12565 6.26902 7.95827 6.24335 7.78226C6.21769 7.60625 6.23426 7.42666 6.29168 7.25832C6.3491 7.08997 6.44574 6.9377 6.57361 6.81406C6.70148 6.69042 6.85692 6.59897 7.02711 6.54724L8.56074 6.04872C8.95065 5.91938 9.30507 5.701 9.59591 5.41088C9.88675 5.12076 10.106 4.76689 10.2363 4.3773L10.7397 2.82843C10.8171 2.60898 10.9608 2.41904 11.151 2.28491C11.3422 2.15301 11.5691 2.08237 11.8015 2.08237C12.0338 2.08237 12.2607 2.15301 12.452 2.28491C12.645 2.42146 12.7904 2.61521 12.8674 2.83882L13.377 4.40707C13.507 4.78654 13.7216 5.13147 14.0046 5.41577C14.2875 5.70006 14.6315 5.91627 15.0103 6.04803L16.5613 6.5507C16.782 6.62872 16.9729 6.77358 17.1074 6.96513C17.2419 7.15669 17.3134 7.38542 17.3119 7.61949C17.3103 7.85356 17.2359 8.08133 17.0989 8.27112C16.9619 8.46091 16.7691 8.60327 16.5474 8.67841L15.0131 9.17693C14.5157 9.34386 14.0784 9.65354 13.7557 10.0673C13.5715 10.3048 13.4296 10.5714 13.3361 10.8567L12.8321 12.4034C12.7545 12.6236 12.6105 12.814 12.4201 12.9484M5.67349 17.1581C5.53257 17.2577 5.36414 17.3109 5.19159 17.3104C5.0202 17.3109 4.85285 17.2584 4.71246 17.1601C4.56791 17.0581 4.45973 16.9125 4.40365 16.7447L4.14608 15.9533C4.09161 15.789 3.99961 15.6396 3.87739 15.5171C3.75517 15.3945 3.60607 15.302 3.44193 15.2471L2.6346 14.9854C2.47179 14.9275 2.33084 14.8208 2.23106 14.6797C2.13128 14.5387 2.07755 14.3702 2.07723 14.1974C2.07723 14.0201 2.13394 13.8475 2.23909 13.7047C2.34423 13.5619 2.49229 13.4565 2.66161 13.4039L3.4537 13.1478C3.61808 13.0932 3.76749 13.0011 3.89008 12.8788C4.01267 12.7564 4.10506 12.6072 4.15993 12.4429L4.42304 11.6377C4.47978 11.4733 4.58665 11.3309 4.72859 11.2305C4.87053 11.1301 5.0404 11.0767 5.21426 11.078C5.38812 11.0792 5.55722 11.1349 5.69773 11.2373C5.83825 11.3397 5.9431 11.4836 5.99753 11.6487L6.25648 12.4422C6.30955 12.6044 6.39913 12.7522 6.51833 12.8743C6.63754 12.9964 6.78317 13.0895 6.94402 13.1464L7.75134 13.4081C7.91453 13.4657 8.05586 13.5725 8.15591 13.7137C8.25596 13.8549 8.30982 14.0237 8.3101 14.1967C8.30992 14.3713 8.25477 14.5413 8.15249 14.6828C8.0502 14.8242 7.90597 14.9298 7.74026 14.9847L6.94817 15.2422C6.78315 15.2966 6.63325 15.3891 6.51056 15.5121C6.38788 15.6352 6.29586 15.7854 6.24194 15.9505L5.97952 16.7558C5.92226 16.9185 5.81579 17.0593 5.67487 17.1588" fill="#80C0FF"/>
</svg>
