<svg width="13" height="13" viewBox="0 0 13 13" fill="none" xmlns="http://www.w3.org/2000/svg">
<path d="M0.844971 5.20845C0.662242 5.03947 0.7615 4.73398 1.00866 4.70468L4.51074 4.28946C4.61147 4.27751 4.69897 4.21405 4.74145 4.12194L6.21859 0.919518C6.32283 0.693513 6.64413 0.693484 6.74837 0.919489L8.2255 4.12198C8.26799 4.21409 8.35492 4.27752 8.45565 4.28946L11.9579 4.70468C12.2051 4.73398 12.3043 5.03949 12.1216 5.20847L9.53253 7.6029C9.45806 7.67177 9.42481 7.77443 9.44458 7.87392L10.1317 11.333C10.1802 11.5771 9.92046 11.7659 9.70328 11.6443L6.62599 9.92177C6.53748 9.87222 6.42965 9.87216 6.34114 9.92171L3.26354 11.6443C3.04637 11.7659 2.78629 11.5771 2.8348 11.333L3.52213 7.87388C3.5419 7.77439 3.50869 7.6718 3.43422 7.60293L0.844971 5.20845Z" stroke="#6C39FE" stroke-width="1.5" stroke-linecap="round" stroke-linejoin="round"/>
</svg>
