<svg width="18" height="14" viewBox="0 0 18 14" fill="none" xmlns="http://www.w3.org/2000/svg">
<path d="M0.271766 6.51213C2.11317 5.55963 4.16877 4.76463 6.08937 3.96553C9.39357 2.65663 12.7109 1.37053 16.0617 0.173126C16.7136 -0.030974 17.885 -0.230475 17.9999 0.676825C17.937 1.96123 17.6782 3.23793 17.5008 4.51473C17.0504 7.32253 16.5297 10.1207 16.022 12.9192C15.8471 13.8515 14.6037 14.334 13.808 13.7374C11.896 12.5245 9.96917 11.3234 8.08147 10.0824C7.46317 9.49232 8.03656 8.64493 8.58877 8.22363C10.1637 6.76603 11.8338 5.52773 13.3263 3.99493C13.729 3.08193 12.5394 3.85132 12.147 4.08712C9.99097 5.48242 7.88776 6.96283 5.61467 8.18913C4.45366 8.78933 3.10037 8.27643 1.93977 7.94143C0.899266 7.53683 -0.625534 7.12903 0.271766 6.51213Z" fill="black"/>
</svg>
