<svg width="18" height="11" viewBox="0 0 18 11" fill="none" xmlns="http://www.w3.org/2000/svg">
<path d="M10.8995 5.2912C10.5704 5.16111 10.5704 4.66451 10.55 4.31871C10.4677 3.08691 10.8791 1.2063 10.3854 0.406805C10.0359 -0.0690954 8.34872 -0.0254955 7.32052 0.0395045C7.03222 0.0831045 6.68262 0.147404 6.43582 0.277404C6.18892 0.407504 5.94212 0.623305 5.94212 0.817605C5.94212 1.0984 6.55952 1.0555 6.78532 1.4228C7.03222 1.8122 7.03222 2.6546 7.03222 3.3463C7.03222 4.1458 6.90842 5.2054 6.60032 5.2483C6.12702 5.2697 5.85982 4.7724 5.61292 4.4052C5.11922 3.6921 4.62552 2.8054 4.25492 1.9408C4.06992 1.4871 3.96662 0.989804 3.69932 0.795504C3.28792 0.492504 2.54732 0.471105 1.82722 0.492505C1.16892 0.514005 0.22232 0.427504 0.0373204 0.838404C-0.10688 1.2921 0.20192 1.7244 0.36642 2.0923C1.20972 4.0158 2.11482 5.702 3.22602 7.3011C4.25492 8.7923 5.22122 9.9812 7.11382 10.6079C7.64902 10.7808 9.99382 11.2781 10.4671 10.6079C10.6316 10.3485 10.5908 9.76471 10.6731 9.33251C10.7554 8.90021 10.8581 8.46791 11.2491 8.44651C11.5782 8.42501 11.7632 8.7273 11.9692 8.9438C12.1957 9.1817 12.3807 9.37601 12.5452 9.59251C12.9363 10.0034 13.3477 10.565 13.8414 10.7815C14.5201 11.0844 15.5694 10.9979 16.5568 10.9544C17.3592 10.9329 17.9352 10.76 17.9971 10.2627C18.0386 9.8733 17.6265 9.31171 17.3796 8.98731C16.7622 8.18781 16.4745 7.9499 15.7747 7.2146C15.466 6.8903 15.075 6.5444 15.075 6.1557C15.0546 5.91781 15.2396 5.702 15.4041 5.4641C16.1243 4.3402 16.8445 3.5406 17.5027 2.3731C17.6877 2.0273 18.1202 1.2278 17.9556 0.838404C17.7706 0.406104 16.7418 0.535405 16.1039 0.535405C15.281 0.535405 14.2113 0.470404 14.0053 0.643304C13.6143 0.924104 13.4497 1.3785 13.2647 1.8108C12.8533 2.8054 12.2977 3.8207 11.7217 4.5774C11.5157 4.8368 11.1259 5.3776 10.8995 5.2912Z" fill="black"/>
</svg>
