<svg width="18" height="18" viewBox="0 0 18 18" fill="none" xmlns="http://www.w3.org/2000/svg">
<mask id="mask0_1_863" style="mask-type:luminance" maskUnits="userSpaceOnUse" x="0" y="0" width="18" height="18">
<path d="M18 0H0V18H18V0Z" fill="white"/>
</mask>
<g mask="url(#mask0_1_863)">
<path d="M8.962 17.9968H9.0337C12.6076 17.9968 14.6821 17.637 16.1515 16.2104C17.6498 14.6971 17.9958 12.6087 17.9958 9.0487V8.9481C17.9958 5.3892 17.6498 3.3147 16.1515 1.7864C14.6831 0.3599 12.5937 0 9.0348 0H8.9631C5.3892 0 3.3136 0.3599 1.8442 1.7864C0.3459 3.2997 0 5.3892 0 8.9481V9.0487C0 12.6076 0.3459 14.6821 1.8442 16.2104C3.2997 17.637 5.3892 17.9968 8.962 17.9968Z" fill="black"/>
<path d="M15.8536 8.86208C15.8536 8.79358 15.7979 8.73678 15.7294 8.73358C13.2696 8.64038 11.7727 8.32668 10.7254 7.27938C9.67588 6.22998 9.36318 4.73188 9.27008 2.26678C9.26788 2.19828 9.21118 2.14258 9.14158 2.14258H8.85458C8.78608 2.14258 8.72928 2.19828 8.72608 2.26678C8.63288 4.73078 8.32018 6.22998 7.27078 7.27938C6.22248 8.32768 4.72648 8.64038 2.26678 8.73358C2.19828 8.73568 2.14258 8.79248 2.14258 8.86208V9.14908C2.14258 9.21758 2.19828 9.27438 2.26678 9.27758C4.72648 9.37068 6.22348 9.68448 7.27078 10.7318C8.31808 11.7791 8.63078 13.2729 8.72498 15.7283C8.72718 15.7968 8.78388 15.8525 8.85348 15.8525H9.14158C9.21008 15.8525 9.26688 15.7968 9.27008 15.7283C9.36428 13.2729 9.67698 11.7791 10.7243 10.7318C11.7727 9.68338 13.2686 9.37068 15.7283 9.27758C15.7969 9.27538 15.8526 9.21868 15.8526 9.14908L15.8536 8.86208Z" fill="white"/>
</g>
</svg>
