<svg width="124" height="10" viewBox="0 0 124 10" fill="none" xmlns="http://www.w3.org/2000/svg">
<path d="M6.06907 9.8L2.05807 4.627L5.62107 2.38419e-06H7.55307L3.96907 4.62L8.09207 9.8H6.06907ZM7.42972e-05 9.8V2.38419e-06H1.56807V3.892H3.38807V5.334H1.56807V9.8H7.42972e-05ZM13.0314 9.968L12.4154 8.526C12.9568 8.39534 13.4444 8.20167 13.8784 7.945C14.3171 7.68834 14.7161 7.34767 15.0754 6.923C15.4348 6.49834 15.7661 5.97334 16.0694 5.348L18.6804 2.38419e-06H20.4934L17.5324 5.838C17.2058 6.482 16.8768 7.042 16.5454 7.518C16.2141 7.98934 15.8688 8.38834 15.5094 8.715C15.1501 9.04167 14.7651 9.30534 14.3544 9.506C13.9484 9.70667 13.5074 9.86067 13.0314 9.968ZM15.8524 6.72L12.1214 2.38419e-06H14.0324L16.9024 5.334L15.8524 6.72ZM24.0559 9.8L27.2339 4.774L24.2239 2.38419e-06H26.0999L28.3609 3.619L30.7759 2.38419e-06H32.5959L29.4319 4.816L32.6869 9.8H30.8039L28.2979 5.943L25.8829 9.8H24.0559ZM37.4178 9.8V2.38419e-06H38.9858V3.892H43.7318V2.38419e-06H45.2998V9.8H43.7318V5.334H38.9858V9.8H37.4178ZM50.9294 9.8V2.38419e-06H52.4904V7.238L57.3904 2.38419e-06H58.9024V9.8H57.3484V2.513L52.4274 9.8H50.9294ZM71.0484 9.8V2.38419e-06H72.6164V3.892H77.3624V2.38419e-06H78.9304V9.8H77.3624V5.334H72.6164V9.8H71.0484ZM83.4331 9.8L87.2411 2.38419e-06H88.9421L92.8481 9.8H91.0771L90.1741 7.462H86.0231L85.1551 9.8H83.4331ZM86.4291 6.111H89.7541L88.0601 1.841L86.4291 6.111ZM97.3471 9.8V2.38419e-06H98.9151V9.8H97.3471ZM104.556 9.8V2.38419e-06H110.891V1.386H106.124V4.032H110.24V5.341H106.124V8.4H110.933V9.8H104.556ZM116.208 9.8V2.38419e-06H119.911C120.593 2.38419e-06 121.181 0.119002 121.675 0.357002C122.175 0.590336 122.56 0.924003 122.83 1.358C123.106 1.792 123.243 2.30767 123.243 2.905C123.243 3.39034 123.138 3.81967 122.928 4.193C122.723 4.56634 122.434 4.87434 122.06 5.117C121.687 5.355 121.255 5.516 120.765 5.6L123.719 9.8H121.822L119.113 5.845H117.776V9.8H116.208ZM117.776 4.543H119.652C120.287 4.543 120.779 4.40767 121.129 4.137C121.484 3.86634 121.661 3.479 121.661 2.975C121.661 2.457 121.503 2.05334 121.185 1.764C120.873 1.47467 120.399 1.33 119.764 1.33H117.776V4.543Z" fill="#80C0FF"/>
</svg>
