<svg width="267" height="46" viewBox="0 0 267 46" fill="none" xmlns="http://www.w3.org/2000/svg">
<path d="M265.809 10.0205H267V15.0307H264.618C259.856 15.0307 258.318 18.7512 258.318 22.6701V35.419H252.961V10.0205H257.723L258.318 13.8402C259.608 11.7071 261.642 10.0205 265.809 10.0205Z" fill="black"/>
<path d="M236.723 35.7166C228.737 35.7166 223.727 30.5576 223.727 22.7694C223.727 14.9316 228.737 9.7229 236.227 9.7229C243.569 9.7229 248.48 14.3859 248.629 21.8268C248.629 22.4717 248.579 23.1662 248.48 23.8607H229.332V24.208C229.481 28.5237 232.209 31.3513 236.426 31.3513C239.7 31.3513 242.081 29.7143 242.825 26.8867H248.182C247.29 31.8969 243.023 35.7166 236.723 35.7166ZM229.53 19.9418H243.073C242.627 16.1717 239.997 14.0387 236.277 14.0387C232.854 14.0387 229.927 16.3205 229.53 19.9418Z" fill="black"/>
<path d="M216.79 6.44882C214.954 6.44882 213.516 5.10946 213.516 3.22441C213.516 1.33937 214.954 0 216.79 0C218.625 0 220.064 1.33937 220.064 3.22441C220.064 5.10946 218.625 6.44882 216.79 6.44882ZM214.061 35.4189V10.0205H219.419V35.4189H214.061Z" fill="black"/>
<path d="M210.05 30.756H211.141V35.419H208.313C204.841 35.419 203.65 33.8812 203.65 31.3513C201.964 33.9308 199.384 35.7166 195.267 35.7166C189.711 35.7166 185.842 32.9883 185.842 28.2757C185.842 23.067 189.612 20.1402 196.706 20.1402H203.105V18.6024C203.105 15.7749 201.071 14.0387 197.549 14.0387C194.374 14.0387 192.241 15.5268 191.844 17.7591H186.586C187.132 12.7985 191.398 9.7229 197.797 9.7229C204.543 9.7229 208.413 12.9473 208.413 18.9497V29.119C208.413 30.4087 208.958 30.756 210.05 30.756ZM203.105 25.0017V24.1087H196.458C193.134 24.1087 191.299 25.3489 191.299 27.9284C191.299 30.0615 193.084 31.5497 196.011 31.5497C200.476 31.5497 203.055 28.9206 203.105 25.0017Z" fill="black"/>
<path d="M153.518 35.419V0.694519H159.222V15.2788H175.344V0.694519H181.049V35.419H175.344V20.3386H159.222V35.419H153.518Z" fill="black"/>
<path d="M116.071 35.419H111.408V10.0205H116.617V27.6308L130.308 10.0205H135.021V35.419H129.812V17.7591L116.071 35.419Z" fill="black"/>
<path d="M100.786 20.1898V10.0205H106.144V35.419H100.786V24.9024H88.1368V35.419H82.7793V10.0205H88.1368V20.1898H100.786Z" fill="black"/>
<path d="M54.666 35.419L64.1904 22.4221L55.2117 10.0205H61.4621L67.5141 18.6024L73.7148 10.0205H79.618L70.5897 22.4221L80.1637 35.419H73.9133L67.266 26.1922L60.5692 35.419H54.666Z" fill="black"/>
<path d="M39.3502 35.5678L29.4785 10.0205H35.1832L42.2769 29.3174L49.1722 10.0205H54.877L43.3683 39.3875C41.7809 43.5048 40.6895 45.3402 36.9691 45.3402H31.2147V40.6276H34.9848C37.0683 40.6276 37.5643 40.1316 38.3581 38.0481L39.3502 35.5678Z" fill="black"/>
<path d="M5.70473 35.419H0V0.694519H5.70473V15.2788H11.5087L22.0252 0.694519H28.5732L16.3205 17.4119L29.3173 35.419H22.4221L11.5583 20.3386H5.70473V35.419Z" fill="black"/>
</svg>
