<svg width="142" height="25" viewBox="0 0 142 25" fill="none" xmlns="http://www.w3.org/2000/svg">
<path d="M141.192 5.32265H141.824V7.98397H140.559C138.03 7.98397 137.213 9.9602 137.213 12.0418V18.8137H134.367V5.32265H136.897L137.213 7.35158C137.898 6.21854 138.978 5.32265 141.192 5.32265Z" fill="white"/>
<path d="M125.742 18.9718C121.499 18.9718 118.838 16.2315 118.838 12.0945C118.838 7.93129 121.499 5.16457 125.478 5.16457C129.378 5.16457 131.986 7.64144 132.065 11.5939C132.065 11.9364 132.039 12.3053 131.986 12.6742H121.815V12.8587C121.894 15.1511 123.344 16.653 125.583 16.653C127.322 16.653 128.587 15.7835 128.983 14.2816H131.828C131.354 16.9429 129.088 18.9718 125.742 18.9718ZM121.921 10.5926H129.114C128.877 8.59003 127.481 7.45699 125.504 7.45699C123.686 7.45699 122.132 8.66908 121.921 10.5926Z" fill="white"/>
<path d="M115.153 3.42548C114.178 3.42548 113.414 2.71404 113.414 1.71275C113.414 0.711458 114.178 1.52588e-05 115.153 1.52588e-05C116.128 1.52588e-05 116.892 0.711458 116.892 1.71275C116.892 2.71404 116.128 3.42548 115.153 3.42548ZM113.704 18.8137V5.32266H116.55V18.8137H113.704Z" fill="white"/>
<path d="M111.574 16.3368H112.153V18.8137H110.651C108.807 18.8137 108.174 17.9969 108.174 16.653C107.279 18.0232 105.908 18.9718 103.721 18.9718C100.77 18.9718 98.7148 17.5226 98.7148 15.0194C98.7148 12.2526 100.717 10.698 104.485 10.698H107.885V9.88117C107.885 8.37923 106.804 7.45699 104.933 7.45699C103.247 7.45699 102.114 8.24748 101.903 9.43322H99.1101C99.3999 6.79825 101.666 5.16457 105.065 5.16457C108.649 5.16457 110.704 6.8773 110.704 10.0656V15.4673C110.704 16.1524 110.994 16.3368 111.574 16.3368ZM107.885 13.2803V12.806H104.354C102.588 12.806 101.613 13.4647 101.613 14.8349C101.613 15.968 102.562 16.7584 104.117 16.7584C106.488 16.7584 107.858 15.3619 107.885 13.2803Z" fill="white"/>
<path d="M81.5449 18.8137V0.368927H84.5751V8.11575H93.1388V0.368927H96.169V18.8137H93.1388V10.8034H84.5751V18.8137H81.5449Z" fill="white"/>
<path d="M61.6546 18.8137H59.1777V5.32265H61.9445V14.6768L69.217 5.32265H71.7202V18.8137H68.9535V9.43321L61.6546 18.8137Z" fill="white"/>
<path d="M53.5357 10.7243V5.32265H56.3814V18.8137H53.5357V13.2276H46.8165V18.8137H43.9707V5.32265H46.8165V10.7243H53.5357Z" fill="white"/>
<path d="M29.0371 18.8137L34.0963 11.9101L29.327 5.32265H32.647L35.8617 9.88115L39.1554 5.32265H42.291L37.4954 11.9101L42.5809 18.8137H39.2608L35.7299 13.9127L32.1727 18.8137H29.0371Z" fill="white"/>
<path d="M20.9018 18.8928L15.6582 5.32265H18.6884L22.4564 15.5727L26.119 5.32265H29.1493L23.0361 20.9217C22.1929 23.1087 21.6132 24.0837 19.637 24.0837H16.5804V21.5804H18.583C19.6897 21.5804 19.9532 21.3169 20.3748 20.2102L20.9018 18.8928Z" fill="white"/>
<path d="M3.03022 18.8137H0V0.368927H3.03022V8.11575H6.11314L11.6993 0.368927H15.1774L8.66906 9.24879L15.5727 18.8137H11.9101L6.13949 10.8034H3.03022V18.8137Z" fill="white"/>
</svg>
